M48
;DRILL file {KiCad (5.0.1)-4} date 2/14/2019 5:58:08 PM
;FORMAT={-:-/ absolute / inch / decimal}
FMAT,2
INCH,TZ
T1C0.0157
T2C0.0236
T3C0.0295
T4C0.0315
T5C0.0394
T6C0.0472
T7C0.0551
%
G90
G05
M72
T1
X1.1962Y-1.3784
X1.7851Y-1.2613
X1.8112Y-1.2909
X1.8196Y-1.24
X1.8613Y-3.1012
X1.9026Y-3.1234
X1.9722Y-3.1737
X2.003Y-2.9251
X2.0167Y-2.6877
X2.0183Y-3.1716
X2.0585Y-2.1702
X2.0623Y-2.5591
X2.1075Y-2.4308
X2.1078Y-2.3529
X2.1327Y-1.8175
X2.2515Y-1.6786
X2.3286Y-2.2904
X2.3917Y-2.9458
X2.5794Y-2.5868
X2.5833Y-3.3983
X2.6045Y-1.9304
X2.8633Y-2.6072
X3.2946Y-2.3945
X3.4945Y-2.1547
X3.5453Y-2.4409
X3.8921Y-2.4986
X4.0694Y-2.085
X4.1045Y-1.7363
X4.2Y-1.6984
X4.5345Y-3.4131
T2
X4.2656Y-1.7984
X4.2656Y-1.8575
X3.5907Y-2.6182
X3.6498Y-2.6182
X4.072Y-1.6163
X4.072Y-1.6754
X4.049Y-1.8384
X4.1081Y-1.8384
X3.534Y-1.3823
X3.534Y-1.4414
X4.2698Y-1.6072
X4.2698Y-1.6663
X1.9393Y-1.0254
X1.9984Y-1.0254
T3
X1.2716Y-1.042
X1.3216Y-0.992
X1.3716Y-1.042
X1.1931Y-1.3184
X1.2431Y-1.2684
X1.2931Y-1.3184
T4
X1.8262Y-1.3752
X1.8262Y-1.4752
X1.8262Y-1.5752
X1.8262Y-1.6752
X1.8262Y-1.7752
X1.8262Y-1.8752
X1.8262Y-1.9752
X1.8262Y-2.0752
X1.8262Y-2.1752
X1.8262Y-2.2752
X1.8262Y-2.3752
X1.8262Y-2.4752
X2.4262Y-1.3752
X2.4262Y-1.4752
X2.4262Y-1.5752
X2.4262Y-1.6752
X2.4262Y-1.7752
X2.4262Y-1.8752
X2.4262Y-1.9752
X2.4262Y-2.0752
X2.4262Y-2.1752
X2.4262Y-2.2752
X2.4262Y-2.3752
X2.4262Y-2.4752
X4.2148Y-2.3946
X4.2148Y-2.5324
X4.2586Y-2.0254
X4.2586Y-2.1632
X2.6772Y-2.207
X2.6772Y-2.507
X2.7772Y-2.207
X2.7772Y-2.507
X2.8772Y-2.207
X2.8772Y-2.507
X2.9772Y-2.207
X2.9772Y-2.507
X3.0772Y-2.207
X3.0772Y-2.507
X3.1772Y-2.207
X3.1772Y-2.507
X3.2772Y-2.207
X3.2772Y-2.507
X3.3772Y-2.207
X3.3772Y-2.507
X2.1164Y-2.6502
X2.1164Y-2.788
X4.1459Y-2.8351
X4.2837Y-2.8351
X3.8364Y-2.624
X3.9742Y-2.624
X0.9126Y-1.6022
X0.9126Y-1.7022
X0.9126Y-1.8022
X0.9126Y-1.9022
X0.9126Y-2.0022
X0.9126Y-2.1022
X0.9126Y-2.2022
X0.9126Y-2.3022
X0.9126Y-2.4022
X0.9126Y-2.5022
X0.9126Y-2.6022
X0.9126Y-2.7022
X0.9126Y-2.8022
X0.9126Y-2.9022
X0.9126Y-3.0022
X0.9126Y-3.1022
X0.9126Y-3.2022
X0.9126Y-3.3022
X0.9126Y-3.4022
X0.9126Y-3.5022
X1.5126Y-1.6022
X1.5126Y-1.7022
X1.5126Y-1.8022
X1.5126Y-1.9022
X1.5126Y-2.0022
X1.5126Y-2.1022
X1.5126Y-2.2022
X1.5126Y-2.3022
X1.5126Y-2.4022
X1.5126Y-2.5022
X1.5126Y-2.6022
X1.5126Y-2.7022
X1.5126Y-2.8022
X1.5126Y-2.9022
X1.5126Y-3.0022
X1.5126Y-3.1022
X1.5126Y-3.2022
X1.5126Y-3.3022
X1.5126Y-3.4022
X1.5126Y-3.5022
X2.6255Y-1.0762
X2.7633Y-1.0762
X3.7866Y-3.2581
X3.7866Y-3.3959
X1.9362Y-1.3752
X1.9362Y-1.4752
X1.9362Y-1.5752
X1.9362Y-1.6752
X1.9362Y-1.7752
X1.9362Y-1.8752
X1.9362Y-1.9752
X1.9362Y-2.0752
X1.9362Y-2.1752
X1.9362Y-2.2752
X1.9362Y-2.3752
X1.9362Y-2.4752
X2.5362Y-1.3752
X2.5362Y-1.4752
X2.5362Y-1.5752
X2.5362Y-1.6752
X2.5362Y-1.7752
X2.5362Y-1.8752
X2.5362Y-1.9752
X2.5362Y-2.0752
X2.5362Y-2.1752
X2.5362Y-2.2752
X2.5362Y-2.3752
X2.5362Y-2.4752
X3.604Y-1.9431
X3.604Y-2.0431
X3.604Y-2.1431
X3.604Y-2.2431
X3.904Y-1.9431
X3.904Y-2.0431
X3.904Y-2.1431
X3.904Y-2.2431
X3.0892Y-1.4768
X3.0892Y-1.5768
X3.0892Y-1.6768
X3.0892Y-1.7768
X3.0892Y-1.8768
X3.0892Y-1.9768
X3.0892Y-2.0768
X3.3892Y-1.4768
X3.3892Y-1.5768
X3.3892Y-1.6768
X3.3892Y-1.7768
X3.3892Y-1.8768
X3.3892Y-1.9768
X3.3892Y-2.0768
X2.2881Y-1.0762
X2.4259Y-1.0762
X3.3222Y-1.096
X3.46Y-1.096
X3.06Y-4.2722
X3.06Y-4.41
X1.6414Y-1.0602
X1.7792Y-1.0602
X4.0474Y-3.1351
X4.0474Y-3.2351
X4.0474Y-3.3351
X4.0474Y-3.4351
X4.3474Y-3.1351
X4.3474Y-3.2351
X4.3474Y-3.3351
X4.3474Y-3.4351
X3.7706Y-2.8972
X3.7706Y-3.035
X2.6762Y-1.3752
X2.6762Y-1.4752
X2.6762Y-1.5752
X2.6762Y-1.6752
X2.6762Y-1.7752
X2.6762Y-1.8752
X2.6762Y-1.9752
X2.6762Y-2.0752
X2.9762Y-1.3752
X2.9762Y-1.4752
X2.9762Y-1.5752
X2.9762Y-1.6752
X2.9762Y-1.7752
X2.9762Y-1.8752
X2.9762Y-1.9752
X2.9762Y-2.0752
X2.9782Y-1.0762
X3.116Y-1.0762
T5
X1.7336Y-3.3982
X1.8336Y-3.3982
X1.9336Y-3.3982
X2.0336Y-3.3982
X2.1336Y-3.3982
X2.2336Y-3.3982
X4.2919Y-1.2122
X4.2919Y-1.4122
X4.5462Y-1.2122
X4.5462Y-1.3122
X4.5462Y-1.4122
X4.6462Y-1.2122
X4.6462Y-1.3122
X4.6462Y-1.4122
X1.117Y-3.6432
X1.217Y-3.6432
X1.317Y-3.6432
X1.417Y-3.6432
X1.517Y-3.6432
X1.617Y-3.6432
X1.717Y-3.6432
X1.817Y-3.6432
X3.8733Y-0.9354
X3.8733Y-1.2503
X4.0576Y-1.0464
X1.7344Y-3.2538
X1.8344Y-3.2538
X1.9344Y-3.2538
X2.0344Y-3.2538
X2.1344Y-3.2538
X2.2344Y-3.2538
X2.6516Y-3.251
X2.6516Y-3.351
X2.6516Y-3.451
X2.6516Y-3.551
X2.6516Y-3.651
X2.6516Y-3.751
X2.6516Y-3.851
X2.6516Y-3.951
X2.6516Y-4.051
X2.6516Y-4.151
X2.6516Y-4.251
X2.6516Y-4.351
X2.6516Y-4.451
X2.6516Y-4.551
X2.6516Y-4.651
X2.7516Y-3.251
X2.7516Y-3.351
X2.7516Y-3.451
X2.7516Y-3.551
X2.7516Y-3.651
X2.7516Y-3.751
X2.7516Y-3.851
X2.7516Y-3.951
X2.7516Y-4.051
X2.7516Y-4.151
X2.7516Y-4.251
X2.7516Y-4.351
X2.7516Y-4.451
X2.7516Y-4.551
X2.7516Y-4.651
T6
X0.911Y-1.1698
X0.911Y-1.4749
T7
X1.0606Y-1.1757
X1.0606Y-1.469
T0
M30
