M48
;DRILL file {KiCad (5.0.1)-4} date 21/1/2019 15:12:37
;FORMAT={-:-/ absolute / inch / decimal}
FMAT,2
INCH,TZ
T1C0.0157
T2C0.0236
T3C0.0295
T4C0.0315
T5C0.0394
T6C0.0472
T7C0.0551
%
G90
G05
M72
T1
X1.4081Y-2.5134
X1.5751Y-2.3257
X1.5898Y-1.793
X1.6142Y-0.975
X1.6197Y-1.8188
X1.6757Y-1.1255
X1.8557Y-4.3171
X1.8714Y-3.7305
X1.8813Y-4.019
X1.9468Y-1.8964
X2.0095Y-4.6071
X2.0358Y-2.5511
X2.353Y-4.6789
X2.4196Y-2.2596
X2.4692Y-2.2996
X2.5086Y-1.9211
X2.5162Y-1.9733
X2.5287Y-2.2585
X2.646Y-1.922
X2.9431Y-2.5835
X3.2297Y-3.032
X3.5361Y-2.4236
X3.7867Y-2.5925
X3.8507Y-2.203
X3.8687Y-1.4276
X4.1446Y-1.2798
T2
X4.0959Y-1.166
X4.155Y-1.166
X3.7265Y-2.1125
X3.7856Y-2.1125
X2.2111Y-1.0202
X2.2702Y-1.0202
X3.4865Y-2.0924
X3.4865Y-2.1515
X3.9189Y-1.0695
X3.978Y-1.0695
X4.526Y-1.318
X4.526Y-1.3771
X4.244Y-1.348
X4.3031Y-1.348
T3
X1.5514Y-1.0755
X1.6014Y-1.0255
X1.6014Y-1.1255
X1.275Y-0.997
X1.325Y-0.947
X1.325Y-1.047
T4
X3.9544Y-2.123
X4.0922Y-2.123
X2.3906Y-2.6688
X2.3906Y-2.8066
X1.2036Y-1.378
X1.2036Y-1.478
X1.2036Y-1.578
X1.2036Y-1.678
X1.2036Y-1.778
X1.2036Y-1.878
X1.2036Y-1.978
X1.2036Y-2.078
X1.2036Y-2.178
X1.2036Y-2.278
X1.2036Y-2.378
X1.2036Y-2.478
X1.2036Y-2.578
X1.2036Y-2.678
X1.2036Y-2.778
X1.2036Y-2.878
X1.2036Y-2.978
X1.2036Y-3.078
X1.2036Y-3.178
X1.2036Y-3.278
X1.8036Y-1.378
X1.8036Y-1.478
X1.8036Y-1.578
X1.8036Y-1.678
X1.8036Y-1.778
X1.8036Y-1.878
X1.8036Y-1.978
X1.8036Y-2.078
X1.8036Y-2.178
X1.8036Y-2.278
X1.8036Y-2.378
X1.8036Y-2.478
X1.8036Y-2.578
X1.8036Y-2.678
X1.8036Y-2.778
X1.8036Y-2.878
X1.8036Y-2.978
X1.8036Y-3.078
X1.8036Y-3.178
X1.8036Y-3.278
X4.519Y-1.545
X4.519Y-1.6828
X3.595Y-1.071
X3.7328Y-1.071
X1.9132Y-1.055
X2.051Y-1.055
X2.098Y-1.37
X2.098Y-1.47
X2.098Y-1.57
X2.098Y-1.67
X2.098Y-1.77
X2.098Y-1.87
X2.098Y-1.97
X2.098Y-2.07
X2.098Y-2.17
X2.098Y-2.27
X2.098Y-2.37
X2.098Y-2.47
X2.698Y-1.37
X2.698Y-1.47
X2.698Y-1.57
X2.698Y-1.67
X2.698Y-1.77
X2.698Y-1.87
X2.698Y-1.97
X2.698Y-2.07
X2.698Y-2.17
X2.698Y-2.27
X2.698Y-2.37
X2.698Y-2.47
X3.25Y-1.071
X3.3878Y-1.071
X2.5599Y-1.071
X2.6977Y-1.071
X2.208Y-1.37
X2.208Y-1.47
X2.208Y-1.57
X2.208Y-1.67
X2.208Y-1.77
X2.208Y-1.87
X2.208Y-1.97
X2.208Y-2.07
X2.208Y-2.17
X2.208Y-2.27
X2.208Y-2.37
X2.208Y-2.47
X2.808Y-1.37
X2.808Y-1.47
X2.808Y-1.57
X2.808Y-1.67
X2.808Y-1.77
X2.808Y-1.87
X2.808Y-1.97
X2.808Y-2.07
X2.808Y-2.17
X2.808Y-2.27
X2.808Y-2.37
X2.808Y-2.47
X1.9752Y-2.7175
X2.113Y-2.7175
X4.047Y-2.7777
X4.047Y-2.9155
X4.031Y-2.4168
X4.031Y-2.5546
X3.0044Y-2.328
X3.0044Y-2.628
X3.1044Y-2.328
X3.1044Y-2.628
X3.2044Y-2.328
X3.2044Y-2.628
X3.3044Y-2.328
X3.3044Y-2.628
X3.4044Y-2.328
X3.4044Y-2.628
X3.5044Y-2.328
X3.5044Y-2.628
X3.6044Y-2.328
X3.6044Y-2.628
X3.7044Y-2.328
X3.7044Y-2.628
X3.355Y-1.368
X3.355Y-1.468
X3.355Y-1.568
X3.355Y-1.668
X3.355Y-1.768
X3.355Y-1.868
X3.355Y-1.968
X3.655Y-1.368
X3.655Y-1.468
X3.655Y-1.568
X3.655Y-1.668
X3.655Y-1.768
X3.655Y-1.868
X3.655Y-1.968
X4.4063Y-2.3547
X4.5441Y-2.3547
X4.4752Y-1.9142
X4.4752Y-2.052
X2.948Y-1.37
X2.948Y-1.47
X2.948Y-1.57
X2.948Y-1.67
X2.948Y-1.77
X2.948Y-1.87
X2.948Y-1.97
X2.948Y-2.07
X3.248Y-1.37
X3.248Y-1.47
X3.248Y-1.57
X3.248Y-1.67
X3.248Y-1.77
X3.248Y-1.87
X3.248Y-1.97
X3.248Y-2.07
X3.882Y-1.513
X3.882Y-1.613
X3.882Y-1.713
X3.882Y-1.813
X4.182Y-1.513
X4.182Y-1.613
X4.182Y-1.713
X4.182Y-1.813
X2.8973Y-1.071
X3.0351Y-1.071
X4.3078Y-2.6547
X4.3078Y-2.7547
X4.3078Y-2.8547
X4.3078Y-2.9547
X4.6078Y-2.6547
X4.6078Y-2.7547
X4.6078Y-2.8547
X4.6078Y-2.9547
T5
X0.877Y-2.665
X0.877Y-2.765
X0.877Y-2.865
X0.877Y-2.965
X0.877Y-3.065
X0.877Y-3.165
X2.276Y-3.098
X2.276Y-3.198
X2.376Y-3.098
X2.376Y-3.198
X2.476Y-3.098
X2.476Y-3.198
X2.576Y-3.098
X2.576Y-3.198
X2.676Y-3.098
X2.676Y-3.198
X2.776Y-3.098
X2.776Y-3.198
X2.876Y-3.098
X2.876Y-3.198
X2.976Y-3.098
X2.976Y-3.198
X3.076Y-3.098
X3.076Y-3.198
X3.176Y-3.098
X3.176Y-3.198
X3.276Y-3.098
X3.276Y-3.198
X3.376Y-3.098
X3.376Y-3.198
X3.476Y-3.098
X3.476Y-3.198
X3.576Y-3.098
X3.576Y-3.198
X3.676Y-3.098
X3.676Y-3.198
X1.951Y-3.767
X1.951Y-3.867
X1.951Y-3.967
X1.951Y-4.067
X1.951Y-4.167
X1.951Y-4.267
X1.951Y-4.367
X1.951Y-4.467
X3.742Y-4.3317
X3.742Y-4.586
X3.742Y-4.686
X3.842Y-4.586
X3.842Y-4.686
X3.942Y-4.3317
X3.942Y-4.586
X3.942Y-4.686
X0.877Y-1.948
X0.877Y-2.048
X0.877Y-2.148
X0.877Y-2.248
X0.877Y-2.348
X0.877Y-2.448
X4.2756Y-4.5888
X4.4598Y-4.3848
X4.4598Y-4.6998
T6
X0.9082Y-1.1314
X0.9082Y-1.4366
T7
X1.0578Y-1.1373
X1.0578Y-1.4307
T0
M30
