G04 #@! TF.GenerationSoftware,KiCad,Pcbnew,(5.0.1)-4*
G04 #@! TF.CreationDate,2019-01-20T23:43:32+08:00*
G04 #@! TF.ProjectId,VGMPlayer,56474D506C617965722E6B696361645F,rev?*
G04 #@! TF.SameCoordinates,Original*
G04 #@! TF.FileFunction,Copper,L2,Bot,Signal*
G04 #@! TF.FilePolarity,Positive*
%FSLAX46Y46*%
G04 Gerber Fmt 4.6, Leading zero omitted, Abs format (unit mm)*
G04 Created by KiCad (PCBNEW (5.0.1)-4) date 20/1/2019 23:43:32*
%MOMM*%
%LPD*%
G01*
G04 APERTURE LIST*
G04 #@! TA.AperFunction,ComponentPad*
%ADD10R,1.600000X1.600000*%
G04 #@! TD*
G04 #@! TA.AperFunction,ComponentPad*
%ADD11C,1.600000*%
G04 #@! TD*
G04 #@! TA.AperFunction,ComponentPad*
%ADD12O,1.440000X2.000000*%
G04 #@! TD*
G04 #@! TA.AperFunction,ComponentPad*
%ADD13R,1.440000X2.000000*%
G04 #@! TD*
G04 #@! TA.AperFunction,ComponentPad*
%ADD14O,1.700000X1.700000*%
G04 #@! TD*
G04 #@! TA.AperFunction,ComponentPad*
%ADD15R,1.700000X1.700000*%
G04 #@! TD*
G04 #@! TA.AperFunction,ComponentPad*
%ADD16R,1.300000X1.300000*%
G04 #@! TD*
G04 #@! TA.AperFunction,ComponentPad*
%ADD17C,1.300000*%
G04 #@! TD*
G04 #@! TA.AperFunction,ComponentPad*
%ADD18C,1.200000*%
G04 #@! TD*
G04 #@! TA.AperFunction,ComponentPad*
%ADD19R,1.200000X1.200000*%
G04 #@! TD*
G04 #@! TA.AperFunction,ComponentPad*
%ADD20C,1.800000*%
G04 #@! TD*
G04 #@! TA.AperFunction,ComponentPad*
%ADD21C,2.000000*%
G04 #@! TD*
G04 #@! TA.AperFunction,ComponentPad*
%ADD22O,1.600000X1.600000*%
G04 #@! TD*
G04 #@! TA.AperFunction,ViaPad*
%ADD23C,0.800000*%
G04 #@! TD*
G04 #@! TA.AperFunction,Conductor*
%ADD24C,0.400000*%
G04 #@! TD*
G04 #@! TA.AperFunction,Conductor*
%ADD25C,0.250000*%
G04 #@! TD*
G04 APERTURE END LIST*
D10*
G04 #@! TO.P,C10,1*
G04 #@! TO.N,+3V3*
X53670200Y-69024500D03*
D11*
G04 #@! TO.P,C10,2*
G04 #@! TO.N,GND*
X50170200Y-69024500D03*
G04 #@! TD*
D12*
G04 #@! TO.P,U12,8*
G04 #@! TO.N,Net-(U12-Pad8)*
X95047000Y-110024000D03*
G04 #@! TO.P,U12,7*
G04 #@! TO.N,Net-(U12-Pad7)*
X100127000Y-110024000D03*
G04 #@! TO.P,U12,6*
G04 #@! TO.N,GNDA*
X95047000Y-116484000D03*
G04 #@! TO.P,U12,5*
G04 #@! TO.N,Net-(C9-Pad1)*
X97587000Y-116484000D03*
G04 #@! TO.P,U12,4*
G04 #@! TO.N,Net-(R6-Pad1)*
X100127000Y-116484000D03*
G04 #@! TO.P,U12,3*
G04 #@! TO.N,GNDA*
X95047000Y-119024000D03*
G04 #@! TO.P,U12,2*
G04 #@! TO.N,Net-(C8-Pad1)*
X97587000Y-119024000D03*
D13*
G04 #@! TO.P,U12,1*
G04 #@! TO.N,Net-(R5-Pad1)*
X100127000Y-119024000D03*
G04 #@! TD*
D14*
G04 #@! TO.P,J3,30*
G04 #@! TO.N,A0*
X93370400Y-81229200D03*
G04 #@! TO.P,J3,29*
G04 #@! TO.N,~LCD_CS*
X93370400Y-78689200D03*
G04 #@! TO.P,J3,28*
G04 #@! TO.N,~RD*
X90830400Y-81229200D03*
G04 #@! TO.P,J3,27*
G04 #@! TO.N,~WR*
X90830400Y-78689200D03*
G04 #@! TO.P,J3,26*
G04 #@! TO.N,D0*
X88290400Y-81229200D03*
G04 #@! TO.P,J3,25*
G04 #@! TO.N,~RESET*
X88290400Y-78689200D03*
G04 #@! TO.P,J3,24*
G04 #@! TO.N,D2*
X85750400Y-81229200D03*
G04 #@! TO.P,J3,23*
G04 #@! TO.N,D1*
X85750400Y-78689200D03*
G04 #@! TO.P,J3,22*
G04 #@! TO.N,D4*
X83210400Y-81229200D03*
G04 #@! TO.P,J3,21*
G04 #@! TO.N,D3*
X83210400Y-78689200D03*
G04 #@! TO.P,J3,20*
G04 #@! TO.N,D6*
X80670400Y-81229200D03*
G04 #@! TO.P,J3,19*
G04 #@! TO.N,D5*
X80670400Y-78689200D03*
G04 #@! TO.P,J3,18*
G04 #@! TO.N,Net-(J3-Pad18)*
X78130400Y-81229200D03*
G04 #@! TO.P,J3,17*
G04 #@! TO.N,D7*
X78130400Y-78689200D03*
G04 #@! TO.P,J3,16*
G04 #@! TO.N,Net-(J3-Pad16)*
X75590400Y-81229200D03*
G04 #@! TO.P,J3,15*
G04 #@! TO.N,Net-(J3-Pad15)*
X75590400Y-78689200D03*
G04 #@! TO.P,J3,14*
G04 #@! TO.N,Net-(J3-Pad14)*
X73050400Y-81229200D03*
G04 #@! TO.P,J3,13*
G04 #@! TO.N,Net-(J3-Pad13)*
X73050400Y-78689200D03*
G04 #@! TO.P,J3,12*
G04 #@! TO.N,Net-(J3-Pad12)*
X70510400Y-81229200D03*
G04 #@! TO.P,J3,11*
G04 #@! TO.N,Net-(J3-Pad11)*
X70510400Y-78689200D03*
G04 #@! TO.P,J3,10*
G04 #@! TO.N,Net-(J3-Pad10)*
X67970400Y-81229200D03*
G04 #@! TO.P,J3,9*
G04 #@! TO.N,Net-(J3-Pad9)*
X67970400Y-78689200D03*
G04 #@! TO.P,J3,8*
G04 #@! TO.N,Net-(J3-Pad8)*
X65430400Y-81229200D03*
G04 #@! TO.P,J3,7*
G04 #@! TO.N,Net-(J3-Pad7)*
X65430400Y-78689200D03*
G04 #@! TO.P,J3,6*
G04 #@! TO.N,Net-(J3-Pad6)*
X62890400Y-81229200D03*
G04 #@! TO.P,J3,5*
G04 #@! TO.N,Net-(J3-Pad5)*
X62890400Y-78689200D03*
G04 #@! TO.P,J3,4*
G04 #@! TO.N,Net-(J3-Pad4)*
X60350400Y-81229200D03*
G04 #@! TO.P,J3,3*
G04 #@! TO.N,Net-(J3-Pad3)*
X60350400Y-78689200D03*
G04 #@! TO.P,J3,2*
G04 #@! TO.N,+3V3*
X57810400Y-81229200D03*
D15*
G04 #@! TO.P,J3,1*
G04 #@! TO.N,GND*
X57810400Y-78689200D03*
G04 #@! TD*
D12*
G04 #@! TO.P,U6,3*
G04 #@! TO.N,GNDA*
X113279120Y-111375120D03*
G04 #@! TO.P,U6,2*
G04 #@! TO.N,Net-(C22-Pad2)*
X108599120Y-116555120D03*
D13*
G04 #@! TO.P,U6,1*
G04 #@! TO.N,Net-(C21-Pad2)*
X113279120Y-119375120D03*
G04 #@! TD*
D16*
G04 #@! TO.P,Q1,1*
G04 #@! TO.N,Net-(Q1-Pad1)*
X33655000Y-26593800D03*
D17*
G04 #@! TO.P,Q1,3*
G04 #@! TO.N,Net-(Q1-Pad3)*
X33655000Y-24053800D03*
G04 #@! TO.P,Q1,2*
G04 #@! TO.N,GNDA*
X32385000Y-25323800D03*
G04 #@! TD*
D16*
G04 #@! TO.P,Q2,1*
G04 #@! TO.N,PWR_USB*
X40675100Y-28586800D03*
D17*
G04 #@! TO.P,Q2,3*
G04 #@! TO.N,+5V*
X40675100Y-26046800D03*
G04 #@! TO.P,Q2,2*
G04 #@! TO.N,Net-(Q2-Pad2)*
X39405100Y-27316800D03*
G04 #@! TD*
D18*
G04 #@! TO.P,C5,2*
G04 #@! TO.N,Net-(C5-Pad2)*
X99541000Y-27165300D03*
D19*
G04 #@! TO.P,C5,1*
G04 #@! TO.N,YM_MOL*
X101041000Y-27165300D03*
G04 #@! TD*
D18*
G04 #@! TO.P,C12,2*
G04 #@! TO.N,Net-(C12-Pad2)*
X114960000Y-34977200D03*
D19*
G04 #@! TO.P,C12,1*
G04 #@! TO.N,Net-(C12-Pad1)*
X114960000Y-33477200D03*
G04 #@! TD*
D18*
G04 #@! TO.P,C28,2*
G04 #@! TO.N,GNDA*
X96153100Y-53657500D03*
D19*
G04 #@! TO.P,C28,1*
G04 #@! TO.N,VDD*
X94653100Y-53657500D03*
G04 #@! TD*
D18*
G04 #@! TO.P,C7,2*
G04 #@! TO.N,Net-(C7-Pad2)*
X104037000Y-29616400D03*
D19*
G04 #@! TO.P,C7,1*
G04 #@! TO.N,SN_OUT*
X105537000Y-29616400D03*
G04 #@! TD*
D18*
G04 #@! TO.P,C6,2*
G04 #@! TO.N,Net-(C6-Pad2)*
X88557100Y-53148100D03*
D19*
G04 #@! TO.P,C6,1*
G04 #@! TO.N,YM_MOR*
X88557100Y-54648100D03*
G04 #@! TD*
D18*
G04 #@! TO.P,C27,2*
G04 #@! TO.N,GNDA*
X56163100Y-25913100D03*
D19*
G04 #@! TO.P,C27,1*
G04 #@! TO.N,VDD*
X57663100Y-25913100D03*
G04 #@! TD*
D18*
G04 #@! TO.P,C11,2*
G04 #@! TO.N,Net-(C11-Pad2)*
X109298000Y-34239000D03*
D19*
G04 #@! TO.P,C11,1*
G04 #@! TO.N,Net-(C11-Pad1)*
X107798000Y-34239000D03*
G04 #@! TD*
D11*
G04 #@! TO.P,C22,2*
G04 #@! TO.N,Net-(C22-Pad2)*
X102387000Y-64887000D03*
D10*
G04 #@! TO.P,C22,1*
G04 #@! TO.N,Net-(C20-Pad2)*
X102387000Y-61387000D03*
G04 #@! TD*
D11*
G04 #@! TO.P,C21,2*
G04 #@! TO.N,Net-(C21-Pad2)*
X113670000Y-48621900D03*
D10*
G04 #@! TO.P,C21,1*
G04 #@! TO.N,Net-(C19-Pad2)*
X113670000Y-52121900D03*
G04 #@! TD*
D11*
G04 #@! TO.P,C23,2*
G04 #@! TO.N,GND*
X48595400Y-26797000D03*
D10*
G04 #@! TO.P,C23,1*
G04 #@! TO.N,VDD*
X52095400Y-26797000D03*
G04 #@! TD*
D11*
G04 #@! TO.P,C24,2*
G04 #@! TO.N,GNDA*
X60721200Y-71287500D03*
D10*
G04 #@! TO.P,C24,1*
G04 #@! TO.N,+5V*
X60721200Y-67787500D03*
G04 #@! TD*
D11*
G04 #@! TO.P,C2,2*
G04 #@! TO.N,GNDA*
X73590600Y-27203400D03*
D10*
G04 #@! TO.P,C2,1*
G04 #@! TO.N,+5V*
X77090600Y-27203400D03*
G04 #@! TD*
D11*
G04 #@! TO.P,C1,2*
G04 #@! TO.N,GND*
X68521500Y-27203400D03*
D10*
G04 #@! TO.P,C1,1*
G04 #@! TO.N,VDD*
X65021500Y-27203400D03*
G04 #@! TD*
D11*
G04 #@! TO.P,C3,2*
G04 #@! TO.N,GNDA*
X94813200Y-27203400D03*
D10*
G04 #@! TO.P,C3,1*
G04 #@! TO.N,+5V*
X91313200Y-27203400D03*
G04 #@! TD*
D11*
G04 #@! TO.P,C17,2*
G04 #@! TO.N,GNDA*
X114783000Y-42743000D03*
D10*
G04 #@! TO.P,C17,1*
G04 #@! TO.N,Net-(C17-Pad1)*
X114783000Y-39243000D03*
G04 #@! TD*
D11*
G04 #@! TO.P,C15,2*
G04 #@! TO.N,GNDA*
X115420000Y-59809700D03*
D10*
G04 #@! TO.P,C15,1*
G04 #@! TO.N,+5V*
X111920000Y-59809700D03*
G04 #@! TD*
D11*
G04 #@! TO.P,C14,2*
G04 #@! TO.N,GNDA*
X100442000Y-53925300D03*
D10*
G04 #@! TO.P,C14,1*
G04 #@! TO.N,+5V*
X103942000Y-53925300D03*
G04 #@! TD*
D11*
G04 #@! TO.P,C18,2*
G04 #@! TO.N,GNDA*
X102794000Y-70553700D03*
D10*
G04 #@! TO.P,C18,1*
G04 #@! TO.N,Net-(C18-Pad1)*
X102794000Y-74053700D03*
G04 #@! TD*
D11*
G04 #@! TO.P,C29,2*
G04 #@! TO.N,GNDA*
X86049200Y-27203400D03*
D10*
G04 #@! TO.P,C29,1*
G04 #@! TO.N,Net-(C29-Pad1)*
X82549200Y-27203400D03*
G04 #@! TD*
D14*
G04 #@! TO.P,U2,8*
G04 #@! TO.N,GND*
X49555400Y-113461800D03*
G04 #@! TO.P,U2,7*
G04 #@! TO.N,+3V3*
X49555400Y-110921800D03*
G04 #@! TO.P,U2,6*
G04 #@! TO.N,Net-(U2-Pad6)*
X49555400Y-108381800D03*
G04 #@! TO.P,U2,5*
G04 #@! TO.N,~SD_CS*
X49555400Y-105841800D03*
G04 #@! TO.P,U2,4*
G04 #@! TO.N,SPI_MOSI*
X49555400Y-103301800D03*
G04 #@! TO.P,U2,3*
G04 #@! TO.N,SPI_CLK*
X49555400Y-100761800D03*
G04 #@! TO.P,U2,2*
G04 #@! TO.N,SPI_MISO*
X49555400Y-98221800D03*
D15*
G04 #@! TO.P,U2,1*
G04 #@! TO.N,GND*
X49555400Y-95681800D03*
G04 #@! TD*
D14*
G04 #@! TO.P,U19,6*
G04 #@! TO.N,Net-(U19-Pad6)*
X22275800Y-62179200D03*
G04 #@! TO.P,U19,5*
G04 #@! TO.N,TXD*
X22275800Y-59639200D03*
G04 #@! TO.P,U19,4*
G04 #@! TO.N,RXD*
X22275800Y-57099200D03*
G04 #@! TO.P,U19,3*
G04 #@! TO.N,GND*
X22275800Y-54559200D03*
G04 #@! TO.P,U19,2*
G04 #@! TO.N,+3V3*
X22275800Y-52019200D03*
D15*
G04 #@! TO.P,U19,1*
G04 #@! TO.N,Net-(U19-Pad1)*
X22275800Y-49479200D03*
G04 #@! TD*
D14*
G04 #@! TO.P,U11,6*
G04 #@! TO.N,Net-(U11-Pad6)*
X22275800Y-80391000D03*
G04 #@! TO.P,U11,5*
G04 #@! TO.N,TXD*
X22275800Y-77851000D03*
G04 #@! TO.P,U11,4*
G04 #@! TO.N,RXD*
X22275800Y-75311000D03*
G04 #@! TO.P,U11,3*
G04 #@! TO.N,GND*
X22275800Y-72771000D03*
G04 #@! TO.P,U11,2*
G04 #@! TO.N,+3V3*
X22275800Y-70231000D03*
D15*
G04 #@! TO.P,U11,1*
G04 #@! TO.N,Net-(U11-Pad1)*
X22275800Y-67691000D03*
G04 #@! TD*
D20*
G04 #@! TO.P,J1,6*
G04 #@! TO.N,GNDA*
X23069000Y-36488600D03*
X23069000Y-28738600D03*
D21*
X26869000Y-36338600D03*
X26869000Y-28888600D03*
G04 #@! TD*
D22*
G04 #@! TO.P,U14,14*
G04 #@! TO.N,YM_MOR*
X92837000Y-34747200D03*
G04 #@! TO.P,U14,7*
G04 #@! TO.N,Net-(R15-Pad1)*
X85217000Y-49987200D03*
G04 #@! TO.P,U14,13*
G04 #@! TO.N,YM_MOR*
X92837000Y-37287200D03*
G04 #@! TO.P,U14,6*
G04 #@! TO.N,Net-(R15-Pad1)*
X85217000Y-47447200D03*
G04 #@! TO.P,U14,12*
G04 #@! TO.N,Net-(C31-Pad2)*
X92837000Y-39827200D03*
G04 #@! TO.P,U14,5*
G04 #@! TO.N,Net-(U13-Pad12)*
X85217000Y-44907200D03*
G04 #@! TO.P,U14,11*
G04 #@! TO.N,GNDA*
X92837000Y-42367200D03*
G04 #@! TO.P,U14,4*
G04 #@! TO.N,+5V*
X85217000Y-42367200D03*
G04 #@! TO.P,U14,10*
G04 #@! TO.N,Net-(C30-Pad2)*
X92837000Y-44907200D03*
G04 #@! TO.P,U14,3*
G04 #@! TO.N,Net-(C29-Pad1)*
X85217000Y-39827200D03*
G04 #@! TO.P,U14,9*
G04 #@! TO.N,YM_MOL*
X92837000Y-47447200D03*
G04 #@! TO.P,U14,2*
G04 #@! TO.N,Net-(U13-Pad14)*
X85217000Y-37287200D03*
G04 #@! TO.P,U14,8*
G04 #@! TO.N,YM_MOL*
X92837000Y-49987200D03*
D10*
G04 #@! TO.P,U14,1*
G04 #@! TO.N,Net-(U13-Pad13)*
X85217000Y-34747200D03*
G04 #@! TD*
D22*
G04 #@! TO.P,U13,16*
G04 #@! TO.N,GNDA*
X82499200Y-34798000D03*
G04 #@! TO.P,U13,8*
X74879200Y-52578000D03*
G04 #@! TO.P,U13,15*
G04 #@! TO.N,Net-(C29-Pad1)*
X82499200Y-37338000D03*
G04 #@! TO.P,U13,7*
G04 #@! TO.N,~RESET*
X74879200Y-50038000D03*
G04 #@! TO.P,U13,14*
G04 #@! TO.N,Net-(U13-Pad14)*
X82499200Y-39878000D03*
G04 #@! TO.P,U13,6*
G04 #@! TO.N,Net-(U13-Pad6)*
X74879200Y-47498000D03*
G04 #@! TO.P,U13,13*
G04 #@! TO.N,Net-(U13-Pad13)*
X82499200Y-42418000D03*
G04 #@! TO.P,U13,5*
G04 #@! TO.N,Net-(U13-Pad5)*
X74879200Y-44958000D03*
G04 #@! TO.P,U13,12*
G04 #@! TO.N,Net-(U13-Pad12)*
X82499200Y-44958000D03*
G04 #@! TO.P,U13,4*
G04 #@! TO.N,Net-(U13-Pad4)*
X74879200Y-42418000D03*
G04 #@! TO.P,U13,11*
G04 #@! TO.N,Net-(R15-Pad2)*
X82499200Y-47498000D03*
G04 #@! TO.P,U13,3*
G04 #@! TO.N,GND*
X74879200Y-39878000D03*
G04 #@! TO.P,U13,10*
G04 #@! TO.N,Net-(C30-Pad2)*
X82499200Y-50038000D03*
G04 #@! TO.P,U13,2*
G04 #@! TO.N,Net-(U13-Pad2)*
X74879200Y-37338000D03*
G04 #@! TO.P,U13,9*
G04 #@! TO.N,Net-(C31-Pad2)*
X82499200Y-52578000D03*
D10*
G04 #@! TO.P,U13,1*
G04 #@! TO.N,+5V*
X74879200Y-34798000D03*
G04 #@! TD*
D22*
G04 #@! TO.P,U8,16*
G04 #@! TO.N,+5V*
X76311800Y-59131200D03*
G04 #@! TO.P,U8,8*
G04 #@! TO.N,GNDA*
X94091800Y-66751200D03*
G04 #@! TO.P,U8,15*
G04 #@! TO.N,D4*
X78851800Y-59131200D03*
G04 #@! TO.P,U8,7*
G04 #@! TO.N,SN_OUT*
X91551800Y-66751200D03*
G04 #@! TO.P,U8,14*
G04 #@! TO.N,SN_CLK*
X81391800Y-59131200D03*
G04 #@! TO.P,U8,6*
G04 #@! TO.N,GNDA*
X89011800Y-66751200D03*
G04 #@! TO.P,U8,13*
G04 #@! TO.N,D3*
X83931800Y-59131200D03*
G04 #@! TO.P,U8,5*
G04 #@! TO.N,SN_WR*
X86471800Y-66751200D03*
G04 #@! TO.P,U8,12*
G04 #@! TO.N,D2*
X86471800Y-59131200D03*
G04 #@! TO.P,U8,4*
G04 #@! TO.N,READY*
X83931800Y-66751200D03*
G04 #@! TO.P,U8,11*
G04 #@! TO.N,D1*
X89011800Y-59131200D03*
G04 #@! TO.P,U8,3*
G04 #@! TO.N,D7*
X81391800Y-66751200D03*
G04 #@! TO.P,U8,10*
G04 #@! TO.N,D0*
X91551800Y-59131200D03*
G04 #@! TO.P,U8,2*
G04 #@! TO.N,D6*
X78851800Y-66751200D03*
G04 #@! TO.P,U8,9*
G04 #@! TO.N,Net-(U8-Pad9)*
X94091800Y-59131200D03*
D10*
G04 #@! TO.P,U8,1*
G04 #@! TO.N,D5*
X76311800Y-66751200D03*
G04 #@! TD*
D22*
G04 #@! TO.P,U7,24*
G04 #@! TO.N,YM_CLK*
X71323200Y-34798000D03*
G04 #@! TO.P,U7,12*
G04 #@! TO.N,GND*
X56083200Y-62738000D03*
G04 #@! TO.P,U7,23*
G04 #@! TO.N,VDD*
X71323200Y-37338000D03*
G04 #@! TO.P,U7,11*
G04 #@! TO.N,~RESET*
X56083200Y-60198000D03*
G04 #@! TO.P,U7,22*
G04 #@! TO.N,+5V*
X71323200Y-39878000D03*
G04 #@! TO.P,U7,10*
G04 #@! TO.N,Net-(U7-Pad10)*
X56083200Y-57658000D03*
G04 #@! TO.P,U7,21*
G04 #@! TO.N,YM_MOL*
X71323200Y-42418000D03*
G04 #@! TO.P,U7,9*
G04 #@! TO.N,D7*
X56083200Y-55118000D03*
G04 #@! TO.P,U7,20*
G04 #@! TO.N,YM_MOR*
X71323200Y-44958000D03*
G04 #@! TO.P,U7,8*
G04 #@! TO.N,D6*
X56083200Y-52578000D03*
G04 #@! TO.P,U7,19*
G04 #@! TO.N,GNDA*
X71323200Y-47498000D03*
G04 #@! TO.P,U7,7*
G04 #@! TO.N,D5*
X56083200Y-50038000D03*
G04 #@! TO.P,U7,18*
G04 #@! TO.N,A1*
X71323200Y-50038000D03*
G04 #@! TO.P,U7,6*
G04 #@! TO.N,D4*
X56083200Y-47498000D03*
G04 #@! TO.P,U7,17*
G04 #@! TO.N,A0*
X71323200Y-52578000D03*
G04 #@! TO.P,U7,5*
G04 #@! TO.N,D3*
X56083200Y-44958000D03*
G04 #@! TO.P,U7,16*
G04 #@! TO.N,Net-(U7-Pad16)*
X71323200Y-55118000D03*
G04 #@! TO.P,U7,4*
G04 #@! TO.N,D2*
X56083200Y-42418000D03*
G04 #@! TO.P,U7,15*
G04 #@! TO.N,~WR*
X71323200Y-57658000D03*
G04 #@! TO.P,U7,3*
G04 #@! TO.N,D1*
X56083200Y-39878000D03*
G04 #@! TO.P,U7,14*
G04 #@! TO.N,~YM_CS*
X71323200Y-60198000D03*
G04 #@! TO.P,U7,2*
G04 #@! TO.N,D0*
X56083200Y-37338000D03*
G04 #@! TO.P,U7,13*
G04 #@! TO.N,Net-(U7-Pad13)*
X71323200Y-62738000D03*
D10*
G04 #@! TO.P,U7,1*
G04 #@! TO.N,GND*
X56083200Y-34798000D03*
G04 #@! TD*
D22*
G04 #@! TO.P,U5,24*
G04 #@! TO.N,YM_CLK*
X68529200Y-34798000D03*
G04 #@! TO.P,U5,12*
G04 #@! TO.N,D1*
X53289200Y-62738000D03*
G04 #@! TO.P,U5,23*
G04 #@! TO.N,Net-(U13-Pad2)*
X68529200Y-37338000D03*
G04 #@! TO.P,U5,11*
G04 #@! TO.N,GND*
X53289200Y-60198000D03*
G04 #@! TO.P,U5,22*
G04 #@! TO.N,VDD*
X68529200Y-39878000D03*
G04 #@! TO.P,U5,10*
G04 #@! TO.N,D0*
X53289200Y-57658000D03*
G04 #@! TO.P,U5,21*
G04 #@! TO.N,Net-(U13-Pad4)*
X68529200Y-42418000D03*
G04 #@! TO.P,U5,9*
G04 #@! TO.N,Net-(R17-Pad1)*
X53289200Y-55118000D03*
G04 #@! TO.P,U5,20*
G04 #@! TO.N,Net-(U13-Pad5)*
X68529200Y-44958000D03*
G04 #@! TO.P,U5,8*
G04 #@! TO.N,Net-(R16-Pad1)*
X53289200Y-52578000D03*
G04 #@! TO.P,U5,19*
G04 #@! TO.N,Net-(U13-Pad6)*
X68529200Y-47498000D03*
G04 #@! TO.P,U5,7*
G04 #@! TO.N,~YM_CS*
X53289200Y-50038000D03*
G04 #@! TO.P,U5,18*
G04 #@! TO.N,D7*
X68529200Y-50038000D03*
G04 #@! TO.P,U5,6*
G04 #@! TO.N,Net-(U5-Pad6)*
X53289200Y-47498000D03*
G04 #@! TO.P,U5,17*
G04 #@! TO.N,D6*
X68529200Y-52578000D03*
G04 #@! TO.P,U5,5*
G04 #@! TO.N,~WR*
X53289200Y-44958000D03*
G04 #@! TO.P,U5,16*
G04 #@! TO.N,D5*
X68529200Y-55118000D03*
G04 #@! TO.P,U5,4*
G04 #@! TO.N,A0*
X53289200Y-42418000D03*
G04 #@! TO.P,U5,15*
G04 #@! TO.N,D4*
X68529200Y-57658000D03*
G04 #@! TO.P,U5,3*
G04 #@! TO.N,~RESET*
X53289200Y-39878000D03*
G04 #@! TO.P,U5,14*
G04 #@! TO.N,D3*
X68529200Y-60198000D03*
G04 #@! TO.P,U5,2*
G04 #@! TO.N,Net-(R1-Pad1)*
X53289200Y-37338000D03*
G04 #@! TO.P,U5,13*
G04 #@! TO.N,D2*
X68529200Y-62738000D03*
D10*
G04 #@! TO.P,U5,1*
G04 #@! TO.N,GND*
X53289200Y-34798000D03*
G04 #@! TD*
D22*
G04 #@! TO.P,U1,40*
G04 #@! TO.N,+3V3*
X45811400Y-35001200D03*
G04 #@! TO.P,U1,20*
G04 #@! TO.N,GND*
X30571400Y-83261200D03*
G04 #@! TO.P,U1,39*
X45811400Y-37541200D03*
G04 #@! TO.P,U1,19*
X30571400Y-80721200D03*
G04 #@! TO.P,U1,38*
G04 #@! TO.N,VDD*
X45811400Y-40081200D03*
G04 #@! TO.P,U1,18*
G04 #@! TO.N,Net-(U1-Pad18)*
X30571400Y-78181200D03*
G04 #@! TO.P,U1,37*
G04 #@! TO.N,SN_CLK_CS*
X45811400Y-42621200D03*
G04 #@! TO.P,U1,17*
G04 #@! TO.N,Net-(U1-Pad17)*
X30571400Y-75641200D03*
G04 #@! TO.P,U1,36*
G04 #@! TO.N,SN_WR*
X45811400Y-45161200D03*
G04 #@! TO.P,U1,16*
G04 #@! TO.N,A1*
X30571400Y-73101200D03*
G04 #@! TO.P,U1,35*
G04 #@! TO.N,~RD*
X45811400Y-47701200D03*
G04 #@! TO.P,U1,15*
G04 #@! TO.N,A0*
X30571400Y-70561200D03*
G04 #@! TO.P,U1,34*
G04 #@! TO.N,~LCD_CS*
X45811400Y-50241200D03*
G04 #@! TO.P,U1,14*
G04 #@! TO.N,~WR*
X30571400Y-68021200D03*
G04 #@! TO.P,U1,33*
G04 #@! TO.N,~SD_CS*
X45811400Y-52781200D03*
G04 #@! TO.P,U1,13*
G04 #@! TO.N,~YM_CS*
X30571400Y-65481200D03*
G04 #@! TO.P,U1,32*
G04 #@! TO.N,YM_CLK_CS*
X45811400Y-55321200D03*
G04 #@! TO.P,U1,12*
G04 #@! TO.N,D7*
X30571400Y-62941200D03*
G04 #@! TO.P,U1,31*
G04 #@! TO.N,~VGM_CS*
X45811400Y-57861200D03*
G04 #@! TO.P,U1,11*
G04 #@! TO.N,D6*
X30571400Y-60401200D03*
G04 #@! TO.P,U1,30*
G04 #@! TO.N,BUTTON_MODE*
X45811400Y-60401200D03*
G04 #@! TO.P,U1,10*
G04 #@! TO.N,D5*
X30571400Y-57861200D03*
G04 #@! TO.P,U1,29*
G04 #@! TO.N,BUTTON_NEXT*
X45811400Y-62941200D03*
G04 #@! TO.P,U1,9*
G04 #@! TO.N,D4*
X30571400Y-55321200D03*
G04 #@! TO.P,U1,28*
G04 #@! TO.N,BUTTON_PREV*
X45811400Y-65481200D03*
G04 #@! TO.P,U1,8*
G04 #@! TO.N,D3*
X30571400Y-52781200D03*
G04 #@! TO.P,U1,27*
G04 #@! TO.N,RXD*
X45811400Y-68021200D03*
G04 #@! TO.P,U1,7*
G04 #@! TO.N,D2*
X30571400Y-50241200D03*
G04 #@! TO.P,U1,26*
G04 #@! TO.N,TXD*
X45811400Y-70561200D03*
G04 #@! TO.P,U1,6*
G04 #@! TO.N,D1*
X30571400Y-47701200D03*
G04 #@! TO.P,U1,25*
G04 #@! TO.N,BUTTON_SELECT*
X45811400Y-73101200D03*
G04 #@! TO.P,U1,5*
G04 #@! TO.N,D0*
X30571400Y-45161200D03*
G04 #@! TO.P,U1,24*
G04 #@! TO.N,SPI_MOSI*
X45811400Y-75641200D03*
G04 #@! TO.P,U1,4*
G04 #@! TO.N,Net-(U1-Pad4)*
X30571400Y-42621200D03*
G04 #@! TO.P,U1,23*
G04 #@! TO.N,SPI_MISO*
X45811400Y-78181200D03*
G04 #@! TO.P,U1,3*
G04 #@! TO.N,Net-(U1-Pad3)*
X30571400Y-40081200D03*
G04 #@! TO.P,U1,22*
G04 #@! TO.N,SPI_CLK*
X45811400Y-80721200D03*
G04 #@! TO.P,U1,2*
G04 #@! TO.N,Net-(U1-Pad2)*
X30571400Y-37541200D03*
G04 #@! TO.P,U1,21*
G04 #@! TO.N,~RESET*
X45811400Y-83261200D03*
D10*
G04 #@! TO.P,U1,1*
G04 #@! TO.N,Net-(U1-Pad1)*
X30571400Y-35001200D03*
G04 #@! TD*
D22*
G04 #@! TO.P,U4,8*
G04 #@! TO.N,Net-(U4-Pad8)*
X109417000Y-75049700D03*
G04 #@! TO.P,U4,4*
G04 #@! TO.N,GNDA*
X117037000Y-67429700D03*
G04 #@! TO.P,U4,7*
G04 #@! TO.N,Net-(C18-Pad1)*
X109417000Y-72509700D03*
G04 #@! TO.P,U4,3*
G04 #@! TO.N,Net-(C12-Pad2)*
X117037000Y-69969700D03*
G04 #@! TO.P,U4,6*
G04 #@! TO.N,+5V*
X109417000Y-69969700D03*
G04 #@! TO.P,U4,2*
G04 #@! TO.N,GNDA*
X117037000Y-72509700D03*
G04 #@! TO.P,U4,5*
G04 #@! TO.N,Net-(C20-Pad2)*
X109417000Y-67429700D03*
D10*
G04 #@! TO.P,U4,1*
G04 #@! TO.N,Net-(U4-Pad1)*
X117037000Y-75049700D03*
G04 #@! TD*
D22*
G04 #@! TO.P,U3,8*
G04 #@! TO.N,Net-(U3-Pad8)*
X106222800Y-38430200D03*
G04 #@! TO.P,U3,4*
G04 #@! TO.N,GNDA*
X98602800Y-46050200D03*
G04 #@! TO.P,U3,7*
G04 #@! TO.N,Net-(C17-Pad1)*
X106222800Y-40970200D03*
G04 #@! TO.P,U3,3*
G04 #@! TO.N,Net-(C11-Pad2)*
X98602800Y-43510200D03*
G04 #@! TO.P,U3,6*
G04 #@! TO.N,+5V*
X106222800Y-43510200D03*
G04 #@! TO.P,U3,2*
G04 #@! TO.N,GNDA*
X98602800Y-40970200D03*
G04 #@! TO.P,U3,5*
G04 #@! TO.N,Net-(C19-Pad2)*
X106222800Y-46050200D03*
D10*
G04 #@! TO.P,U3,1*
G04 #@! TO.N,Net-(U3-Pad1)*
X98602800Y-38430200D03*
G04 #@! TD*
D23*
G04 #@! TO.N,VDD*
X89817800Y-61559200D03*
X41000800Y-24765700D03*
G04 #@! TO.N,Net-(C7-Pad2)*
X98264500Y-36262100D03*
G04 #@! TO.N,Net-(C8-Pad1)*
X105273400Y-32506800D03*
G04 #@! TO.N,SPI_MOSI*
X40380600Y-45543400D03*
G04 #@! TO.N,SPI_CLK*
X47532900Y-94755000D03*
X51709600Y-64798900D03*
G04 #@! TO.N,YM_CLK_CS*
X41141200Y-46197700D03*
G04 #@! TO.N,D1*
X63911800Y-50121600D03*
G04 #@! TO.N,D4*
X49448700Y-48169800D03*
X82035100Y-77014000D03*
G04 #@! TO.N,D5*
X64228300Y-57366800D03*
G04 #@! TO.N,D6*
X62718700Y-58408700D03*
G04 #@! TO.N,D7*
X61457200Y-57394900D03*
X35765400Y-63839300D03*
X40007500Y-59072600D03*
G04 #@! TO.N,SN_WR*
X74755300Y-65620000D03*
G04 #@! TO.N,Net-(Q1-Pad3)*
X42561800Y-28586800D03*
G04 #@! TO.N,BUTTON_SELECT*
X47784700Y-102083000D03*
G04 #@! TO.N,BUTTON_PREV*
X59766100Y-118843200D03*
G04 #@! TO.N,BUTTON_NEXT*
X47135100Y-109654200D03*
G04 #@! TO.N,BUTTON_MODE*
X51040700Y-117019400D03*
G04 #@! TO.N,A0*
X97807400Y-55956000D03*
G04 #@! TO.N,~WR*
X96182000Y-65849100D03*
G04 #@! TO.N,~RESET*
X67209400Y-48818700D03*
X63718700Y-48796200D03*
G04 #@! TD*
D24*
G04 #@! TO.N,VDD*
X69983600Y-26951000D02*
X69983600Y-35171200D01*
X69983600Y-35171200D02*
X70950100Y-36137700D01*
X70950100Y-36137700D02*
X71323200Y-36137700D01*
X66221800Y-27203400D02*
X67429100Y-25996100D01*
X67429100Y-25996100D02*
X69028700Y-25996100D01*
X69028700Y-25996100D02*
X69983600Y-26951000D01*
X94125100Y-53657500D02*
X94125100Y-28315500D01*
X94125100Y-28315500D02*
X93064300Y-27254700D01*
X93064300Y-27254700D02*
X93064300Y-26748300D01*
X93064300Y-26748300D02*
X91706800Y-25390800D01*
X91706800Y-25390800D02*
X71543800Y-25390800D01*
X71543800Y-25390800D02*
X69983600Y-26951000D01*
X94125100Y-53657500D02*
X93652800Y-53657500D01*
X94653100Y-53657500D02*
X94125100Y-53657500D01*
X71323200Y-37338000D02*
X71323200Y-36137700D01*
X65021500Y-27203400D02*
X66221800Y-27203400D01*
X58663400Y-25913100D02*
X59953700Y-27203400D01*
X59953700Y-27203400D02*
X65021500Y-27203400D01*
X93652800Y-53657500D02*
X92891400Y-54418900D01*
X92891400Y-54418900D02*
X92891400Y-59524000D01*
X92891400Y-59524000D02*
X90856200Y-61559200D01*
X90856200Y-61559200D02*
X89817800Y-61559200D01*
X45811400Y-40081200D02*
X45811400Y-38880900D01*
X51495300Y-26797000D02*
X51495300Y-33570000D01*
X51495300Y-33570000D02*
X46184400Y-38880900D01*
X46184400Y-38880900D02*
X45811400Y-38880900D01*
X51495300Y-26797000D02*
X50895100Y-26797000D01*
X52095400Y-26797000D02*
X51495300Y-26797000D01*
X50895100Y-26797000D02*
X48863800Y-24765700D01*
X48863800Y-24765700D02*
X41000800Y-24765700D01*
X57663100Y-25913100D02*
X58663400Y-25913100D01*
G04 #@! TO.N,GNDA*
X96153100Y-53657500D02*
X96153100Y-63489600D01*
X96153100Y-63489600D02*
X94091800Y-65550900D01*
X26869000Y-28888600D02*
X30433800Y-25323800D01*
X30433800Y-25323800D02*
X32385000Y-25323800D01*
X117037000Y-72509700D02*
X117037000Y-73710000D01*
X117037000Y-73710000D02*
X116136800Y-73710000D01*
X116136800Y-73710000D02*
X113279100Y-76567700D01*
X113279100Y-76567700D02*
X113279100Y-111375100D01*
X98602800Y-46050200D02*
X98602800Y-47250500D01*
X98602800Y-47250500D02*
X96153100Y-49700200D01*
X96153100Y-49700200D02*
X96153100Y-53657500D01*
X98602800Y-40970200D02*
X98602800Y-39769900D01*
X94813200Y-27203400D02*
X94813200Y-36829200D01*
X94813200Y-36829200D02*
X97753900Y-39769900D01*
X97753900Y-39769900D02*
X98602800Y-39769900D01*
X95047000Y-119024000D02*
X95047000Y-116484000D01*
X114783000Y-42743000D02*
X115420000Y-43380000D01*
X115420000Y-43380000D02*
X115420000Y-59809700D01*
X94091800Y-66751200D02*
X94091800Y-65550900D01*
X74879200Y-52578000D02*
X74879200Y-51377700D01*
X71323200Y-47498000D02*
X71323200Y-48698300D01*
X71323200Y-48698300D02*
X71698400Y-48698300D01*
X71698400Y-48698300D02*
X74377800Y-51377700D01*
X74377800Y-51377700D02*
X74879200Y-51377700D01*
D25*
G04 #@! TO.N,YM_MOR*
X81366000Y-46228000D02*
X82878500Y-46228000D01*
X82878500Y-46228000D02*
X83972700Y-45133800D01*
X83972700Y-45133800D02*
X83972700Y-44542300D01*
X83972700Y-44542300D02*
X84877800Y-43637200D01*
X84877800Y-43637200D02*
X85643000Y-43637200D01*
X85643000Y-43637200D02*
X91711700Y-37568500D01*
X91711700Y-37568500D02*
X91711700Y-37287200D01*
X72448500Y-44958000D02*
X73634500Y-43772000D01*
X73634500Y-43772000D02*
X78910000Y-43772000D01*
X78910000Y-43772000D02*
X81366000Y-46228000D01*
X81366000Y-46228000D02*
X81366000Y-53043600D01*
X81366000Y-53043600D02*
X82970500Y-54648100D01*
X82970500Y-54648100D02*
X88557100Y-54648100D01*
X92837000Y-37287200D02*
X91711700Y-37287200D01*
X92837000Y-34747200D02*
X92837000Y-37287200D01*
X71323200Y-44958000D02*
X72448500Y-44958000D01*
G04 #@! TO.N,Net-(C7-Pad2)*
X104037000Y-29616400D02*
X98264500Y-35388900D01*
X98264500Y-35388900D02*
X98264500Y-36262100D01*
G04 #@! TO.N,Net-(C8-Pad1)*
X98632300Y-119024000D02*
X98632300Y-50067800D01*
X98632300Y-50067800D02*
X105097400Y-43602700D01*
X105097400Y-43602700D02*
X105097400Y-32682800D01*
X105097400Y-32682800D02*
X105273400Y-32506800D01*
X97587000Y-119024000D02*
X98632300Y-119024000D01*
G04 #@! TO.N,Net-(R15-Pad1)*
X85217000Y-47447200D02*
X85217000Y-49987200D01*
G04 #@! TO.N,YM_MOL*
X92837000Y-49987200D02*
X92837000Y-47447200D01*
G04 #@! TO.N,SN_OUT*
X105537000Y-30541700D02*
X104061800Y-32016900D01*
X104061800Y-32016900D02*
X104061800Y-43336900D01*
X104061800Y-43336900D02*
X97078500Y-50320200D01*
X97078500Y-50320200D02*
X97078500Y-63902800D01*
X97078500Y-63902800D02*
X95262000Y-65719300D01*
X95262000Y-65719300D02*
X95262000Y-67200000D01*
X95262000Y-67200000D02*
X94567900Y-67894100D01*
X94567900Y-67894100D02*
X93538700Y-67894100D01*
X93538700Y-67894100D02*
X92677100Y-67032500D01*
X92677100Y-67032500D02*
X92677100Y-66751200D01*
X105537000Y-29616400D02*
X105537000Y-30541700D01*
X91551800Y-66751200D02*
X92677100Y-66751200D01*
G04 #@! TO.N,SPI_MOSI*
X40380600Y-45543400D02*
X40460800Y-45463200D01*
X40460800Y-45463200D02*
X41432500Y-45463200D01*
X41432500Y-45463200D02*
X41866500Y-45897200D01*
X41866500Y-45897200D02*
X41866500Y-47902100D01*
X41866500Y-47902100D02*
X45475600Y-51511200D01*
X45475600Y-51511200D02*
X46206300Y-51511200D01*
X46206300Y-51511200D02*
X47858200Y-53163100D01*
X47858200Y-53163100D02*
X47858200Y-73594400D01*
X47858200Y-73594400D02*
X45811400Y-75641200D01*
X45811400Y-75641200D02*
X45811400Y-76766500D01*
X49555400Y-103301800D02*
X49555400Y-102126500D01*
X49555400Y-102126500D02*
X49229600Y-102126500D01*
X49229600Y-102126500D02*
X45767600Y-98664500D01*
X45767600Y-98664500D02*
X45767600Y-86240000D01*
X45767600Y-86240000D02*
X44194400Y-84666800D01*
X44194400Y-84666800D02*
X44194400Y-78102200D01*
X44194400Y-78102200D02*
X45530100Y-76766500D01*
X45530100Y-76766500D02*
X45811400Y-76766500D01*
G04 #@! TO.N,SPI_CLK*
X45811400Y-79595900D02*
X46092700Y-79595900D01*
X46092700Y-79595900D02*
X48308500Y-77380100D01*
X48308500Y-77380100D02*
X48308500Y-68200000D01*
X48308500Y-68200000D02*
X51709600Y-64798900D01*
X45811400Y-80721200D02*
X44644700Y-81887900D01*
X44644700Y-81887900D02*
X44644700Y-83686100D01*
X44644700Y-83686100D02*
X47532900Y-86574300D01*
X47532900Y-86574300D02*
X47532900Y-94755000D01*
X47532900Y-94755000D02*
X47532900Y-97931400D01*
X47532900Y-97931400D02*
X49188000Y-99586500D01*
X49188000Y-99586500D02*
X49555400Y-99586500D01*
X45811400Y-80158500D02*
X45811400Y-80721200D01*
X49555400Y-100761800D02*
X49555400Y-99586500D01*
X45811400Y-80158500D02*
X45811400Y-79595900D01*
G04 #@! TO.N,YM_CLK_CS*
X45811400Y-54195900D02*
X45530100Y-54195900D01*
X45530100Y-54195900D02*
X41141200Y-49807000D01*
X41141200Y-49807000D02*
X41141200Y-46197700D01*
X45811400Y-55321200D02*
X45811400Y-54195900D01*
D24*
G04 #@! TO.N,+5V*
X74879200Y-35398100D02*
X77090600Y-33186700D01*
X77090600Y-33186700D02*
X77090600Y-27203400D01*
X74879200Y-35398100D02*
X74879200Y-35998300D01*
X74879200Y-34798000D02*
X74879200Y-35398100D01*
X73124300Y-37328100D02*
X74454100Y-35998300D01*
X74454100Y-35998300D02*
X74879200Y-35998300D01*
X71323200Y-38677700D02*
X71774700Y-38677700D01*
X71774700Y-38677700D02*
X73124300Y-37328100D01*
X73124300Y-37328100D02*
X74404200Y-38608000D01*
X74404200Y-38608000D02*
X75318200Y-38608000D01*
X75318200Y-38608000D02*
X80337900Y-43627700D01*
X80337900Y-43627700D02*
X83056300Y-43627700D01*
X83056300Y-43627700D02*
X84016700Y-42667300D01*
X84016700Y-42667300D02*
X84016700Y-42367200D01*
X85217000Y-42367200D02*
X84016700Y-42367200D01*
X109417000Y-69969700D02*
X109417000Y-68769400D01*
X111920000Y-59809700D02*
X111920000Y-66639400D01*
X111920000Y-66639400D02*
X109790000Y-68769400D01*
X109790000Y-68769400D02*
X109417000Y-68769400D01*
X91313200Y-27203400D02*
X90112900Y-27203400D01*
X77090600Y-27203400D02*
X78290900Y-27203400D01*
X78290900Y-27203400D02*
X79491200Y-26003100D01*
X79491200Y-26003100D02*
X88912600Y-26003100D01*
X88912600Y-26003100D02*
X90112900Y-27203400D01*
X71323200Y-39878000D02*
X71323200Y-38677700D01*
X106222800Y-43510200D02*
X106222800Y-44710500D01*
X106222800Y-44710500D02*
X105847700Y-44710500D01*
X105847700Y-44710500D02*
X103942000Y-46616200D01*
X103942000Y-46616200D02*
X103942000Y-53925300D01*
D25*
G04 #@! TO.N,Net-(C17-Pad1)*
X114783000Y-39243000D02*
X113657700Y-39243000D01*
X106222800Y-40970200D02*
X111930500Y-40970200D01*
X111930500Y-40970200D02*
X113657700Y-39243000D01*
G04 #@! TO.N,Net-(C12-Pad2)*
X117037000Y-69969700D02*
X117037000Y-68844400D01*
X117037000Y-68844400D02*
X117318300Y-68844400D01*
X117318300Y-68844400D02*
X118170200Y-67992500D01*
X118170200Y-67992500D02*
X118170200Y-38187400D01*
X118170200Y-38187400D02*
X114960000Y-34977200D01*
G04 #@! TO.N,D0*
X56083200Y-37338000D02*
X57208500Y-37338000D01*
X57208500Y-37338000D02*
X66228900Y-46358400D01*
X66228900Y-46358400D02*
X75335600Y-46358400D01*
X75335600Y-46358400D02*
X79850800Y-50873600D01*
X79850800Y-50873600D02*
X79850800Y-52210200D01*
X79850800Y-52210200D02*
X84574800Y-56934200D01*
X84574800Y-56934200D02*
X88496900Y-56934200D01*
X88496900Y-56934200D02*
X90281800Y-58719100D01*
X90281800Y-58719100D02*
X90281800Y-59131200D01*
X90281800Y-59131200D02*
X90281800Y-60069500D01*
X90281800Y-60069500D02*
X89092500Y-61258800D01*
X89092500Y-61258800D02*
X89092500Y-61859600D01*
X89092500Y-61859600D02*
X90182100Y-62949200D01*
X90182100Y-62949200D02*
X90182100Y-67349500D01*
X90182100Y-67349500D02*
X89465700Y-68065900D01*
X89465700Y-68065900D02*
X89465700Y-79246000D01*
X89465700Y-79246000D02*
X88657800Y-80053900D01*
X88657800Y-80053900D02*
X88290400Y-80053900D01*
X90281800Y-59131200D02*
X90426500Y-59131200D01*
X91551800Y-59131200D02*
X90426500Y-59131200D01*
X88290400Y-81229200D02*
X88290400Y-80053900D01*
G04 #@! TO.N,D1*
X56083200Y-41003300D02*
X56364500Y-41003300D01*
X56364500Y-41003300D02*
X62957200Y-47596000D01*
X62957200Y-47596000D02*
X62957200Y-49167000D01*
X62957200Y-49167000D02*
X63911800Y-50121600D01*
X87886500Y-59131200D02*
X87886500Y-58849900D01*
X87886500Y-58849900D02*
X86572500Y-57535900D01*
X86572500Y-57535900D02*
X78245500Y-57535900D01*
X78245500Y-57535900D02*
X72017600Y-51308000D01*
X72017600Y-51308000D02*
X65098200Y-51308000D01*
X65098200Y-51308000D02*
X63911800Y-50121600D01*
X89011800Y-59131200D02*
X87886500Y-59131200D01*
X56083200Y-39878000D02*
X56083200Y-41003300D01*
X89011800Y-59131200D02*
X89011800Y-60256500D01*
X85750400Y-78689200D02*
X85750400Y-77513900D01*
X85750400Y-77513900D02*
X87886500Y-75377800D01*
X87886500Y-75377800D02*
X87886500Y-61381800D01*
X87886500Y-61381800D02*
X89011800Y-60256500D01*
G04 #@! TO.N,TXD*
X22275800Y-77851000D02*
X22275800Y-76675700D01*
X22275800Y-59639200D02*
X22275800Y-60814500D01*
X22275800Y-60814500D02*
X22643100Y-60814500D01*
X22643100Y-60814500D02*
X23451200Y-61622600D01*
X23451200Y-61622600D02*
X23451200Y-70796300D01*
X23451200Y-70796300D02*
X22746500Y-71501000D01*
X22746500Y-71501000D02*
X21820500Y-71501000D01*
X21820500Y-71501000D02*
X21100500Y-72221000D01*
X21100500Y-72221000D02*
X21100500Y-75867800D01*
X21100500Y-75867800D02*
X21908400Y-76675700D01*
X21908400Y-76675700D02*
X22275800Y-76675700D01*
G04 #@! TO.N,D2*
X85346500Y-59131200D02*
X85346500Y-58938400D01*
X85346500Y-58938400D02*
X84414000Y-58005900D01*
X84414000Y-58005900D02*
X76967300Y-58005900D01*
X76967300Y-58005900D02*
X72809400Y-53848000D01*
X72809400Y-53848000D02*
X66612500Y-53848000D01*
X66612500Y-53848000D02*
X58724900Y-45960400D01*
X58724900Y-45960400D02*
X58724900Y-45059700D01*
X58724900Y-45059700D02*
X56083200Y-42418000D01*
X86471800Y-59131200D02*
X85346500Y-59131200D01*
X85750400Y-81229200D02*
X85750400Y-80053900D01*
X86471800Y-59131200D02*
X86471800Y-60256500D01*
X86471800Y-60256500D02*
X85346500Y-61381800D01*
X85346500Y-61381800D02*
X85346500Y-71661300D01*
X85346500Y-71661300D02*
X84575100Y-72432700D01*
X84575100Y-72432700D02*
X84575100Y-79246000D01*
X84575100Y-79246000D02*
X85383000Y-80053900D01*
X85383000Y-80053900D02*
X85750400Y-80053900D01*
G04 #@! TO.N,RXD*
X22275800Y-75311000D02*
X24712400Y-77747600D01*
X24712400Y-77747600D02*
X24712400Y-79052800D01*
X24712400Y-79052800D02*
X30088400Y-84428800D01*
X30088400Y-84428800D02*
X31006200Y-84428800D01*
X31006200Y-84428800D02*
X32135200Y-83299800D01*
X32135200Y-83299800D02*
X32135200Y-72464500D01*
X32135200Y-72464500D02*
X45365500Y-59234200D01*
X45365500Y-59234200D02*
X46274900Y-59234200D01*
X46274900Y-59234200D02*
X46957400Y-59916700D01*
X46957400Y-59916700D02*
X46957400Y-66875200D01*
X46957400Y-66875200D02*
X45811400Y-68021200D01*
X22275800Y-57099200D02*
X22275800Y-58274500D01*
X22275800Y-75311000D02*
X22275800Y-74135700D01*
X22275800Y-74135700D02*
X22643100Y-74135700D01*
X22643100Y-74135700D02*
X23906700Y-72872100D01*
X23906700Y-72872100D02*
X23906700Y-59538100D01*
X23906700Y-59538100D02*
X22643100Y-58274500D01*
X22643100Y-58274500D02*
X22275800Y-58274500D01*
G04 #@! TO.N,D3*
X56083200Y-44958000D02*
X54957900Y-44958000D01*
X56083200Y-44958000D02*
X66970000Y-55844800D01*
X66970000Y-55844800D02*
X66970000Y-57776000D01*
X66970000Y-57776000D02*
X68266700Y-59072700D01*
X68266700Y-59072700D02*
X68529200Y-59072700D01*
X30571400Y-52781200D02*
X31696700Y-52781200D01*
X31696700Y-52781200D02*
X31696700Y-52555900D01*
X31696700Y-52555900D02*
X40242100Y-44010500D01*
X40242100Y-44010500D02*
X48625800Y-44010500D01*
X48625800Y-44010500D02*
X50698600Y-46083300D01*
X50698600Y-46083300D02*
X53832600Y-46083300D01*
X53832600Y-46083300D02*
X54957900Y-44958000D01*
X68529200Y-60198000D02*
X68529200Y-59072700D01*
X83210400Y-77513900D02*
X82798900Y-77102400D01*
X82798900Y-77102400D02*
X82798900Y-61389400D01*
X82798900Y-61389400D02*
X83931800Y-60256500D01*
X83210400Y-78689200D02*
X83210400Y-77513900D01*
X83931800Y-59131200D02*
X83931800Y-60256500D01*
G04 #@! TO.N,D4*
X72454500Y-60717500D02*
X71704000Y-61468000D01*
X71704000Y-61468000D02*
X70953400Y-61468000D01*
X70953400Y-61468000D02*
X69766900Y-62654500D01*
X69766900Y-62654500D02*
X69766900Y-63135700D01*
X69766900Y-63135700D02*
X69032100Y-63870500D01*
X69032100Y-63870500D02*
X68035300Y-63870500D01*
X68035300Y-63870500D02*
X64953600Y-60788800D01*
X64953600Y-60788800D02*
X64953600Y-57066300D01*
X64953600Y-57066300D02*
X56510600Y-48623300D01*
X56510600Y-48623300D02*
X56083200Y-48623300D01*
X77724400Y-61383900D02*
X77724400Y-72703300D01*
X77724400Y-72703300D02*
X82035100Y-77014000D01*
X78851800Y-60256500D02*
X77724400Y-61383900D01*
X72454500Y-60717500D02*
X77058000Y-60717500D01*
X77058000Y-60717500D02*
X77724400Y-61383900D01*
X72454500Y-60717500D02*
X72454500Y-59727200D01*
X72454500Y-59727200D02*
X71510600Y-58783300D01*
X71510600Y-58783300D02*
X70779800Y-58783300D01*
X70779800Y-58783300D02*
X69654500Y-57658000D01*
X78851800Y-59131200D02*
X78851800Y-60256500D01*
X68529200Y-57658000D02*
X69654500Y-57658000D01*
X56083200Y-47498000D02*
X56083200Y-48623300D01*
X30571400Y-54195900D02*
X30919500Y-54195900D01*
X30919500Y-54195900D02*
X37784800Y-47330600D01*
X37784800Y-47330600D02*
X37784800Y-47109000D01*
X37784800Y-47109000D02*
X40124100Y-44769700D01*
X40124100Y-44769700D02*
X43619700Y-44769700D01*
X43619700Y-44769700D02*
X45239200Y-46389200D01*
X45239200Y-46389200D02*
X47668100Y-46389200D01*
X47668100Y-46389200D02*
X49448700Y-48169800D01*
X30571400Y-55321200D02*
X30571400Y-54195900D01*
X82035100Y-77014000D02*
X82035100Y-79246000D01*
X82035100Y-79246000D02*
X82843000Y-80053900D01*
X82843000Y-80053900D02*
X83210400Y-80053900D01*
X83210400Y-81229200D02*
X83210400Y-80053900D01*
G04 #@! TO.N,D5*
X76311800Y-65625900D02*
X75006700Y-64320800D01*
X75006700Y-64320800D02*
X67848700Y-64320800D01*
X67848700Y-64320800D02*
X64228300Y-60700400D01*
X64228300Y-60700400D02*
X64228300Y-57366800D01*
X64228300Y-57366800D02*
X57208500Y-50347000D01*
X57208500Y-50347000D02*
X57208500Y-50038000D01*
X76311800Y-66751200D02*
X76311800Y-65625900D01*
X56083200Y-50038000D02*
X57208500Y-50038000D01*
X80670400Y-77513900D02*
X76311800Y-73155300D01*
X76311800Y-73155300D02*
X76311800Y-66751200D01*
X80670400Y-78689200D02*
X80670400Y-77513900D01*
G04 #@! TO.N,D6*
X80670400Y-81229200D02*
X80670400Y-80053900D01*
X62718700Y-58408700D02*
X62718700Y-60681800D01*
X62718700Y-60681800D02*
X79495100Y-77458200D01*
X79495100Y-77458200D02*
X79495100Y-79246000D01*
X79495100Y-79246000D02*
X80303000Y-80053900D01*
X80303000Y-80053900D02*
X80670400Y-80053900D01*
X57208500Y-52578000D02*
X57666200Y-52578000D01*
X57666200Y-52578000D02*
X62718700Y-57630500D01*
X62718700Y-57630500D02*
X62718700Y-58408700D01*
X56083200Y-52578000D02*
X57208500Y-52578000D01*
G04 #@! TO.N,D7*
X78130400Y-77513900D02*
X61457200Y-60840700D01*
X61457200Y-60840700D02*
X61457200Y-57394900D01*
X57208500Y-55118000D02*
X59485400Y-57394900D01*
X59485400Y-57394900D02*
X61457200Y-57394900D01*
X35765400Y-63839300D02*
X40007500Y-59597200D01*
X40007500Y-59597200D02*
X40007500Y-59072600D01*
X30571400Y-62941200D02*
X34867300Y-62941200D01*
X34867300Y-62941200D02*
X35765400Y-63839300D01*
X56083200Y-55118000D02*
X57208500Y-55118000D01*
X78130400Y-78689200D02*
X78130400Y-77513900D01*
G04 #@! TO.N,SN_WR*
X74755300Y-65620000D02*
X68510900Y-65620000D01*
X68510900Y-65620000D02*
X63725400Y-60834500D01*
X63725400Y-60834500D02*
X63725400Y-57920700D01*
X63725400Y-57920700D02*
X56968000Y-51163300D01*
X56968000Y-51163300D02*
X52798200Y-51163300D01*
X52798200Y-51163300D02*
X50174000Y-48539100D01*
X50174000Y-48539100D02*
X50174000Y-47869300D01*
X50174000Y-47869300D02*
X47465900Y-45161200D01*
X47465900Y-45161200D02*
X46936700Y-45161200D01*
X45811400Y-45161200D02*
X46936700Y-45161200D01*
D24*
G04 #@! TO.N,GND*
X49555400Y-112211500D02*
X49008400Y-112211500D01*
X49008400Y-112211500D02*
X48294900Y-111498000D01*
X48294900Y-111498000D02*
X48294900Y-110263100D01*
X48294900Y-110263100D02*
X48385700Y-110172300D01*
X48385700Y-110172300D02*
X48385700Y-109136100D01*
X48385700Y-109136100D02*
X48294900Y-109045300D01*
X48294900Y-109045300D02*
X48294900Y-107869300D01*
X48294900Y-107869300D02*
X49052400Y-107111800D01*
X49052400Y-107111800D02*
X50148300Y-107111800D01*
X50148300Y-107111800D02*
X50805700Y-106454400D01*
X50805700Y-106454400D02*
X50805700Y-97635300D01*
X50805700Y-97635300D02*
X50102500Y-96932100D01*
X50102500Y-96932100D02*
X49555400Y-96932100D01*
X30571400Y-80721200D02*
X30571400Y-79520900D01*
X30571400Y-79520900D02*
X30196300Y-79520900D01*
X30196300Y-79520900D02*
X25830000Y-75154600D01*
X25830000Y-75154600D02*
X25830000Y-54559200D01*
X30571400Y-80721200D02*
X30571400Y-83261200D01*
X25830000Y-54559200D02*
X25830000Y-53263300D01*
X25830000Y-53263300D02*
X30181600Y-48911700D01*
X30181600Y-48911700D02*
X31971200Y-48911700D01*
X31971200Y-48911700D02*
X43941900Y-36941000D01*
X43941900Y-36941000D02*
X45811400Y-36941000D01*
X25830000Y-54559200D02*
X23526100Y-54559200D01*
X22275800Y-54559200D02*
X23526100Y-54559200D01*
X45811400Y-36941000D02*
X45811400Y-36340900D01*
X45811400Y-37541200D02*
X45811400Y-36941000D01*
X62565000Y-33159900D02*
X68521500Y-27203400D01*
X56083200Y-34798000D02*
X60926900Y-34798000D01*
X60926900Y-34798000D02*
X62565000Y-33159900D01*
X62565000Y-33159900D02*
X68013000Y-38608000D01*
X68013000Y-38608000D02*
X68986000Y-38608000D01*
X68986000Y-38608000D02*
X69995800Y-39617800D01*
X69995800Y-39617800D02*
X69995800Y-40287300D01*
X69995800Y-40287300D02*
X70802700Y-41094200D01*
X70802700Y-41094200D02*
X72462700Y-41094200D01*
X72462700Y-41094200D02*
X73678900Y-39878000D01*
X74879200Y-39878000D02*
X73678900Y-39878000D01*
X49555400Y-94431500D02*
X50170200Y-93816700D01*
X50170200Y-93816700D02*
X50170200Y-69024500D01*
X50170200Y-69024500D02*
X51398500Y-67796200D01*
X51398500Y-67796200D02*
X56083200Y-67796200D01*
X45811400Y-36340900D02*
X46186500Y-36340900D01*
X46186500Y-36340900D02*
X48595400Y-33932000D01*
X48595400Y-33932000D02*
X48595400Y-26797000D01*
X56083200Y-67796200D02*
X56083200Y-75711700D01*
X56083200Y-75711700D02*
X57810400Y-77438900D01*
X56083200Y-62738000D02*
X56083200Y-67796200D01*
X49555400Y-95681800D02*
X49555400Y-94431500D01*
X49555400Y-95681800D02*
X49555400Y-96932100D01*
X49555400Y-113461800D02*
X49555400Y-112211500D01*
X57810400Y-78689200D02*
X57810400Y-77438900D01*
G04 #@! TO.N,+3V3*
X22275800Y-52019200D02*
X23526100Y-52019200D01*
X45811400Y-35001200D02*
X43695100Y-35001200D01*
X43695100Y-35001200D02*
X32265100Y-46431200D01*
X32265100Y-46431200D02*
X29114100Y-46431200D01*
X29114100Y-46431200D02*
X23526100Y-52019200D01*
X57810400Y-81229200D02*
X57810400Y-79978900D01*
X57810400Y-79978900D02*
X56794500Y-79978900D01*
X56794500Y-79978900D02*
X53670200Y-76854600D01*
X53670200Y-76854600D02*
X53670200Y-69024500D01*
X57810400Y-81229200D02*
X57810400Y-101963500D01*
X57810400Y-101963500D02*
X50102400Y-109671500D01*
X50102400Y-109671500D02*
X49555400Y-109671500D01*
X49555400Y-110921800D02*
X49555400Y-109671500D01*
X22275800Y-52019200D02*
X22275800Y-53269500D01*
X22275800Y-70231000D02*
X22275800Y-68980700D01*
X22275800Y-68980700D02*
X21259900Y-68980700D01*
X21259900Y-68980700D02*
X20986200Y-68707000D01*
X20986200Y-68707000D02*
X20986200Y-54041000D01*
X20986200Y-54041000D02*
X21757700Y-53269500D01*
X21757700Y-53269500D02*
X22275800Y-53269500D01*
D25*
G04 #@! TO.N,Net-(U13-Pad4)*
X68529200Y-42418000D02*
X69654500Y-42418000D01*
X69654500Y-42418000D02*
X70832900Y-43596400D01*
X70832900Y-43596400D02*
X72173800Y-43596400D01*
X72173800Y-43596400D02*
X73352200Y-42418000D01*
X73352200Y-42418000D02*
X74879200Y-42418000D01*
G04 #@! TO.N,Net-(C29-Pad1)*
X82549200Y-27203400D02*
X82549200Y-28328700D01*
X82499200Y-37338000D02*
X82499200Y-36212700D01*
X82499200Y-36212700D02*
X82780500Y-36212700D01*
X82780500Y-36212700D02*
X83624800Y-35368400D01*
X83624800Y-35368400D02*
X83624800Y-29404300D01*
X83624800Y-29404300D02*
X82549200Y-28328700D01*
G04 #@! TO.N,Net-(U13-Pad13)*
X85217000Y-34747200D02*
X85217000Y-35872500D01*
X82499200Y-42418000D02*
X82499200Y-41292700D01*
X82499200Y-41292700D02*
X82780600Y-41292700D01*
X82780600Y-41292700D02*
X84091700Y-39981600D01*
X84091700Y-39981600D02*
X84091700Y-36716400D01*
X84091700Y-36716400D02*
X84935600Y-35872500D01*
X84935600Y-35872500D02*
X85217000Y-35872500D01*
G04 #@! TO.N,Net-(C31-Pad2)*
X92837000Y-39827200D02*
X91711700Y-39827200D01*
X82499200Y-52578000D02*
X82499200Y-51452700D01*
X82499200Y-51452700D02*
X82780600Y-51452700D01*
X82780600Y-51452700D02*
X83624500Y-50608800D01*
X83624500Y-50608800D02*
X83624500Y-47397300D01*
X83624500Y-47397300D02*
X84844600Y-46177200D01*
X84844600Y-46177200D02*
X85643000Y-46177200D01*
X85643000Y-46177200D02*
X91711700Y-40108500D01*
X91711700Y-40108500D02*
X91711700Y-39827200D01*
G04 #@! TO.N,Net-(C22-Pad2)*
X108599100Y-116555100D02*
X107553800Y-116555100D01*
X102387000Y-64887000D02*
X107553800Y-70053800D01*
X107553800Y-70053800D02*
X107553800Y-116555100D01*
G04 #@! TO.N,Net-(C21-Pad2)*
X112233800Y-119375100D02*
X112233800Y-116419400D01*
X112233800Y-116419400D02*
X108274700Y-112460300D01*
X108274700Y-112460300D02*
X108274700Y-54017200D01*
X108274700Y-54017200D02*
X113670000Y-48621900D01*
X113279100Y-119375100D02*
X112233800Y-119375100D01*
G04 #@! TO.N,Net-(Q1-Pad3)*
X33655000Y-24053800D02*
X39197200Y-29596000D01*
X39197200Y-29596000D02*
X41552600Y-29596000D01*
X41552600Y-29596000D02*
X42561800Y-28586800D01*
G04 #@! TO.N,BUTTON_SELECT*
X47784700Y-102083000D02*
X45046200Y-99344500D01*
X45046200Y-99344500D02*
X45046200Y-86473800D01*
X45046200Y-86473800D02*
X43744100Y-85171700D01*
X43744100Y-85171700D02*
X43744100Y-76012500D01*
X43744100Y-76012500D02*
X45530100Y-74226500D01*
X45530100Y-74226500D02*
X45811400Y-74226500D01*
X45811400Y-73101200D02*
X45811400Y-74226500D01*
G04 #@! TO.N,BUTTON_PREV*
X59766100Y-118843200D02*
X56047000Y-115124100D01*
X56047000Y-115124100D02*
X49555400Y-115124100D01*
X49555400Y-115124100D02*
X47704000Y-113272700D01*
X47704000Y-113272700D02*
X47704000Y-110111100D01*
X47704000Y-110111100D02*
X47860400Y-109954700D01*
X47860400Y-109954700D02*
X47860400Y-109353700D01*
X47860400Y-109353700D02*
X44145600Y-105638900D01*
X44145600Y-105638900D02*
X44145600Y-88134500D01*
X44145600Y-88134500D02*
X42830700Y-86819600D01*
X42830700Y-86819600D02*
X42830700Y-69305900D01*
X42830700Y-69305900D02*
X45530100Y-66606500D01*
X45530100Y-66606500D02*
X45811400Y-66606500D01*
X45811400Y-65481200D02*
X45811400Y-66606500D01*
G04 #@! TO.N,BUTTON_NEXT*
X45811400Y-62941200D02*
X45811400Y-64066500D01*
X45811400Y-64066500D02*
X45530100Y-64066500D01*
X45530100Y-64066500D02*
X42190100Y-67406500D01*
X42190100Y-67406500D02*
X42190100Y-104709200D01*
X42190100Y-104709200D02*
X47135100Y-109654200D01*
G04 #@! TO.N,BUTTON_MODE*
X45811400Y-61526500D02*
X45607100Y-61526500D01*
X45607100Y-61526500D02*
X41694200Y-65439400D01*
X41694200Y-65439400D02*
X41694200Y-106408000D01*
X41694200Y-106408000D02*
X46201200Y-110915000D01*
X46201200Y-110915000D02*
X46201200Y-112431800D01*
X46201200Y-112431800D02*
X50788800Y-117019400D01*
X50788800Y-117019400D02*
X51040700Y-117019400D01*
X45811400Y-60401200D02*
X45811400Y-61526500D01*
G04 #@! TO.N,~RD*
X89655100Y-81229200D02*
X89655100Y-81594500D01*
X89655100Y-81594500D02*
X88819200Y-82430400D01*
X88819200Y-82430400D02*
X80143900Y-82430400D01*
X80143900Y-82430400D02*
X79400400Y-81686900D01*
X79400400Y-81686900D02*
X79400400Y-80764000D01*
X79400400Y-80764000D02*
X78525800Y-79889400D01*
X78525800Y-79889400D02*
X77665800Y-79889400D01*
X77665800Y-79889400D02*
X76955000Y-79178600D01*
X76955000Y-79178600D02*
X76955000Y-78150700D01*
X76955000Y-78150700D02*
X57819800Y-59015500D01*
X57819800Y-59015500D02*
X57819800Y-57795800D01*
X57819800Y-57795800D02*
X56412000Y-56388000D01*
X56412000Y-56388000D02*
X55755000Y-56388000D01*
X55755000Y-56388000D02*
X54830800Y-55463800D01*
X54830800Y-55463800D02*
X54830800Y-55043600D01*
X54830800Y-55043600D02*
X53635200Y-53848000D01*
X53635200Y-53848000D02*
X52948500Y-53848000D01*
X52948500Y-53848000D02*
X46936700Y-47836200D01*
X46936700Y-47836200D02*
X46936700Y-47701200D01*
X45811400Y-47701200D02*
X46936700Y-47701200D01*
X90830400Y-81229200D02*
X89655100Y-81229200D01*
G04 #@! TO.N,A0*
X51249400Y-41489200D02*
X51249400Y-41503500D01*
X51249400Y-41503500D02*
X52163900Y-42418000D01*
X97807400Y-55956000D02*
X97807400Y-50228200D01*
X97807400Y-50228200D02*
X104512200Y-43523400D01*
X104512200Y-43523400D02*
X104512200Y-32222800D01*
X104512200Y-32222800D02*
X106193200Y-30541800D01*
X106193200Y-30541800D02*
X106271700Y-30541800D01*
X106271700Y-30541800D02*
X106462300Y-30351200D01*
X106462300Y-30351200D02*
X106462300Y-28848900D01*
X106462300Y-28848900D02*
X102463600Y-24850200D01*
X102463600Y-24850200D02*
X55856900Y-24850200D01*
X55856900Y-24850200D02*
X53964000Y-26743100D01*
X53964000Y-26743100D02*
X53964000Y-31844300D01*
X53964000Y-31844300D02*
X51249400Y-34558900D01*
X51249400Y-34558900D02*
X51249400Y-41489200D01*
X51249400Y-41489200D02*
X41450600Y-41489200D01*
X41450600Y-41489200D02*
X31428600Y-51511200D01*
X31428600Y-51511200D02*
X30180600Y-51511200D01*
X30180600Y-51511200D02*
X29411700Y-52280100D01*
X29411700Y-52280100D02*
X29411700Y-68557500D01*
X29411700Y-68557500D02*
X30290100Y-69435900D01*
X30290100Y-69435900D02*
X30571400Y-69435900D01*
X53289200Y-42418000D02*
X52163900Y-42418000D01*
X30571400Y-70561200D02*
X30571400Y-69435900D01*
X93370400Y-81229200D02*
X97807400Y-76792200D01*
X97807400Y-76792200D02*
X97807400Y-55956000D01*
G04 #@! TO.N,~WR*
X53289200Y-44958000D02*
X54438600Y-43808600D01*
X54438600Y-43808600D02*
X56573400Y-43808600D01*
X56573400Y-43808600D02*
X57780700Y-45015900D01*
X57780700Y-45015900D02*
X57780700Y-45961100D01*
X57780700Y-45961100D02*
X68063000Y-56243400D01*
X68063000Y-56243400D02*
X69908600Y-56243400D01*
X69908600Y-56243400D02*
X71323200Y-57658000D01*
X96182000Y-65849100D02*
X96182000Y-72162300D01*
X96182000Y-72162300D02*
X90830400Y-77513900D01*
X90830400Y-78689200D02*
X90830400Y-77513900D01*
G04 #@! TO.N,~YM_CS*
X71323200Y-60198000D02*
X70197900Y-60198000D01*
X53289200Y-50038000D02*
X53289200Y-48912700D01*
X53289200Y-48912700D02*
X53570600Y-48912700D01*
X53570600Y-48912700D02*
X54414500Y-48068800D01*
X54414500Y-48068800D02*
X54414500Y-47574000D01*
X54414500Y-47574000D02*
X55621500Y-46367000D01*
X55621500Y-46367000D02*
X56546800Y-46367000D01*
X56546800Y-46367000D02*
X65928200Y-55748400D01*
X65928200Y-55748400D02*
X65928200Y-59266700D01*
X65928200Y-59266700D02*
X67984800Y-61323300D01*
X67984800Y-61323300D02*
X69072600Y-61323300D01*
X69072600Y-61323300D02*
X70197900Y-60198000D01*
G04 #@! TO.N,~RESET*
X63718700Y-48796200D02*
X67186900Y-48796200D01*
X67186900Y-48796200D02*
X67209400Y-48818700D01*
X54414500Y-39878000D02*
X55539800Y-38752700D01*
X55539800Y-38752700D02*
X56575800Y-38752700D01*
X56575800Y-38752700D02*
X63718700Y-45895600D01*
X63718700Y-45895600D02*
X63718700Y-48796200D01*
X45811400Y-82135900D02*
X46092700Y-82135900D01*
X46092700Y-82135900D02*
X48758800Y-79469800D01*
X48758800Y-79469800D02*
X48758800Y-68839800D01*
X48758800Y-68839800D02*
X52566700Y-65031900D01*
X52566700Y-65031900D02*
X52699300Y-65031900D01*
X52699300Y-65031900D02*
X54957900Y-62773300D01*
X54957900Y-62773300D02*
X54957900Y-62167200D01*
X54957900Y-62167200D02*
X55801800Y-61323300D01*
X55801800Y-61323300D02*
X56083200Y-61323300D01*
X56083200Y-60198000D02*
X56083200Y-61323300D01*
X45811400Y-83261200D02*
X45811400Y-82135900D01*
X53289200Y-39878000D02*
X54414500Y-39878000D01*
G04 #@! TO.N,~LCD_CS*
X93370400Y-78689200D02*
X93370400Y-79864500D01*
X45811400Y-50241200D02*
X46936700Y-50241200D01*
X46936700Y-50241200D02*
X46936700Y-50381900D01*
X46936700Y-50381900D02*
X52942800Y-56388000D01*
X52942800Y-56388000D02*
X53635200Y-56388000D01*
X53635200Y-56388000D02*
X54830800Y-57583600D01*
X54830800Y-57583600D02*
X54830800Y-58003800D01*
X54830800Y-58003800D02*
X55868200Y-59041200D01*
X55868200Y-59041200D02*
X56600600Y-59041200D01*
X56600600Y-59041200D02*
X74225800Y-76666400D01*
X74225800Y-76666400D02*
X74225800Y-78988800D01*
X74225800Y-78988800D02*
X75290800Y-80053800D01*
X75290800Y-80053800D02*
X76116000Y-80053800D01*
X76116000Y-80053800D02*
X76860400Y-80798200D01*
X76860400Y-80798200D02*
X76860400Y-81698300D01*
X76860400Y-81698300D02*
X78045600Y-82883500D01*
X78045600Y-82883500D02*
X90869500Y-82883500D01*
X90869500Y-82883500D02*
X92195100Y-81557900D01*
X92195100Y-81557900D02*
X92195100Y-80672400D01*
X92195100Y-80672400D02*
X93003000Y-79864500D01*
X93003000Y-79864500D02*
X93370400Y-79864500D01*
G04 #@! TO.N,~SD_CS*
X49555400Y-104666500D02*
X49214300Y-104666500D01*
X49214300Y-104666500D02*
X44595900Y-100048100D01*
X44595900Y-100048100D02*
X44595900Y-87909500D01*
X44595900Y-87909500D02*
X43281100Y-86594700D01*
X43281100Y-86594700D02*
X43281100Y-74028500D01*
X43281100Y-74028500D02*
X45478400Y-71831200D01*
X45478400Y-71831200D02*
X46162500Y-71831200D01*
X46162500Y-71831200D02*
X47407700Y-70586000D01*
X47407700Y-70586000D02*
X47407700Y-54377500D01*
X47407700Y-54377500D02*
X45811400Y-52781200D01*
X49555400Y-105841800D02*
X49555400Y-104666500D01*
G04 #@! TD*
M02*
