M48
;DRILL file {KiCad (5.0.1)-4} date 8/12/2018 13:39:31
;FORMAT={-:-/ absolute / inch / decimal}
FMAT,2
INCH,TZ
T1C0.0157
T2C0.0236
T3C0.0256
T4C0.0276
T5C0.0315
T6C0.0394
T7C0.0402
T8C0.0433
%
G90
G05
M72
T1
X3.4565Y-4.4033
X3.4821Y-4.2229
X3.4821Y-4.6439
X3.4822Y-4.5369
X3.6299Y-4.75
X3.6299Y-4.2534
X3.6303Y-4.6659
X3.7307Y-3.95
X3.868Y-3.8739
X3.8951Y-2.8192
X4.3465Y-4.8914
T2
X2.7409Y-3.6
X2.8Y-3.6
X4.6Y-4.825
X4.6Y-4.8841
X4.3Y-4.2
X4.3591Y-4.2
X4.82Y-3.64
X4.8791Y-3.64
X3.9809Y-2.54
X4.04Y-2.54
X4.62Y-4.12
X4.6791Y-4.12
X4.82Y-4.12
X4.8791Y-4.12
X2.1409Y-3.075
X2.2Y-3.075
X4.62Y-3.64
X4.6791Y-3.64
T5
X5.1172Y-4.76
X5.255Y-4.76
X3.46Y-2.54
X3.46Y-2.6778
X4.6172Y-2.845
X4.755Y-2.845
X5.075Y-4.18
X5.075Y-4.28
X5.075Y-4.38
X5.075Y-4.48
X5.375Y-4.18
X5.375Y-4.28
X5.375Y-4.38
X5.375Y-4.48
X4.615Y-3.105
X4.615Y-3.205
X4.615Y-3.305
X4.615Y-3.405
X4.915Y-3.105
X4.915Y-3.205
X4.915Y-3.305
X4.915Y-3.405
X4.375Y-4.475
X4.375Y-4.6128
X2.8Y-4.5579
X2.8Y-4.75
X5.47Y-3.92
X5.6078Y-3.92
X3.78Y-2.9
X3.78Y-3.
X3.78Y-3.1
X3.78Y-3.2
X3.78Y-3.3
X3.78Y-3.4
X3.78Y-3.5
X3.78Y-3.6
X3.78Y-3.7
X3.78Y-3.8
X3.78Y-3.9
X3.78Y-4.
X4.38Y-2.9
X4.38Y-3.
X4.38Y-3.1
X4.38Y-3.2
X4.38Y-3.3
X4.38Y-3.4
X4.38Y-3.5
X4.38Y-3.6
X4.38Y-3.7
X4.38Y-3.8
X4.38Y-3.9
X4.38Y-4.
X3.55Y-2.95
X3.55Y-3.05
X3.55Y-3.15
X3.55Y-3.25
X3.55Y-3.35
X3.55Y-3.45
X3.55Y-3.55
X3.55Y-3.65
X3.55Y-3.75
X4.975Y-2.845
X5.1128Y-2.845
X2.6Y-2.95
X2.6Y-3.05
X2.6Y-3.15
X2.6Y-3.25
X2.6Y-3.35
X2.6Y-3.45
X2.6Y-3.55
X2.6Y-3.65
X2.6Y-3.75
X2.6Y-3.85
X2.6Y-3.95
X2.6Y-4.05
X2.6Y-4.15
X2.6Y-4.25
X2.6Y-4.35
X2.6Y-4.45
X2.6Y-4.55
X2.6Y-4.65
X2.6Y-4.75
X2.6Y-4.85
X3.2Y-2.95
X3.2Y-3.05
X3.2Y-3.15
X3.2Y-3.25
X3.2Y-3.35
X3.2Y-3.45
X3.2Y-3.55
X3.2Y-3.65
X3.2Y-3.75
X3.2Y-3.85
X3.2Y-3.95
X3.2Y-4.05
X3.2Y-4.15
X3.2Y-4.25
X3.2Y-4.35
X3.2Y-4.45
X3.2Y-4.55
X3.2Y-4.65
X3.2Y-4.75
X3.2Y-4.85
X3.775Y-4.175
X3.775Y-4.275
X3.775Y-4.375
X3.775Y-4.475
X3.775Y-4.575
X3.775Y-4.675
X3.775Y-4.775
X3.775Y-4.875
X4.075Y-4.175
X4.075Y-4.275
X4.075Y-4.375
X4.075Y-4.475
X4.075Y-4.575
X4.075Y-4.675
X4.075Y-4.775
X4.075Y-4.875
X5.11Y-3.92
X5.2478Y-3.92
X5.1072Y-3.525
X5.245Y-3.525
T6
X3.125Y-2.45
X3.125Y-2.55
X3.125Y-2.65
X3.125Y-2.75
X2.4Y-2.95
X2.4Y-3.05
X2.4Y-3.15
X2.4Y-3.25
X2.4Y-3.35
X2.4Y-3.45
X2.4Y-3.55
X2.4Y-3.65
X2.4Y-3.75
X2.4Y-3.85
X2.4Y-3.95
X2.4Y-4.05
X2.4Y-4.15
X2.4Y-4.25
X2.4Y-4.35
X2.4Y-4.45
X2.4Y-4.55
X2.4Y-4.65
X2.4Y-4.75
X2.4Y-4.85
X3.4Y-2.95
X3.4Y-3.05
X3.4Y-3.15
X3.4Y-3.25
X3.4Y-3.35
X3.4Y-3.45
X3.4Y-3.55
X3.4Y-3.65
X3.4Y-3.75
X3.4Y-3.85
X3.4Y-3.95
X3.4Y-4.05
X3.4Y-4.15
X3.4Y-4.25
X3.4Y-4.35
X3.4Y-4.45
X3.4Y-4.55
X3.4Y-4.65
X3.4Y-4.75
X3.4Y-4.85
X3.7706Y-5.14
X3.8706Y-5.14
X3.9706Y-5.14
X4.0706Y-5.14
X4.1706Y-5.14
X4.2706Y-5.14
X4.3706Y-5.14
X4.4706Y-5.14
X4.5706Y-5.14
X4.6706Y-5.14
X4.7706Y-5.14
X4.8706Y-5.14
X4.9706Y-5.14
X5.0706Y-5.14
X5.1706Y-5.14
X5.2706Y-5.14
X5.3706Y-5.14
X5.4706Y-5.14
X5.5706Y-5.14
X5.6706Y-5.14
X2.175Y-3.7
X2.175Y-3.8
X2.175Y-3.9
X2.175Y-4.
X3.7706Y-6.14
X3.8706Y-6.14
X3.9706Y-6.14
X4.0706Y-6.14
X4.1706Y-6.14
X4.2706Y-6.14
X4.3706Y-6.14
X4.4706Y-6.14
X4.5706Y-6.14
X4.6706Y-6.14
X4.7706Y-6.14
X4.8706Y-6.14
X4.9706Y-6.14
X5.0706Y-6.14
X5.1706Y-6.14
X5.2706Y-6.14
X5.3706Y-6.14
X5.4706Y-6.14
X5.5706Y-6.14
X5.6706Y-6.14
T8
X2.65Y-2.7
X2.75Y-2.7
X2.85Y-2.7
T3
X2.1557Y-2.5913G85X2.1557Y-2.6071
G05
X2.3463Y-2.5913G85X2.3463Y-2.6071
G05
T4
X2.1435Y-2.4713G85X2.1435Y-2.4909
G05
X2.3585Y-2.4713G85X2.3585Y-2.4909
G05
T7
X5.33Y-2.7701G85X5.33Y-2.8299
G05
X5.5599Y-2.7098G85X5.5001Y-2.7098
G05
X5.5599Y-2.95G85X5.5001Y-2.95
G05
T0
M30
