M48
;DRILL file {KiCad (5.0.1)-4} date 26/1/2019 1:26:45
;FORMAT={-:-/ absolute / inch / decimal}
FMAT,2
INCH,TZ
T1C0.0157
T2C0.0236
T3C0.0295
T4C0.0315
T5C0.0394
T6C0.0472
T7C0.0551
%
G90
G05
M72
T1
X1.2734Y-1.3682
X1.315Y-2.1801
X1.3428Y-2.3109
X1.4041Y-2.3643
X1.5583Y-1.2761
X1.591Y-1.2448
X1.7281Y-1.2144
X1.8148Y-3.0283
X1.8185Y-3.0724
X1.8559Y-2.9176
X1.9631Y-3.0782
X2.214Y-3.1813
X2.3098Y-2.4195
X2.3261Y-3.2012
X2.4705Y-2.5201
X2.5101Y-2.7749
X2.6329Y-2.4309
X2.7275Y-2.4005
X2.831Y-3.6707
X2.8643Y-2.7845
X2.8917Y-3.6344
X3.2272Y-3.481
X3.4651Y-1.8395
X3.9528Y-1.7808
X3.9637Y-1.6178
X3.9815Y-1.7111
X4.1856Y-1.6197
T2
X3.534Y-1.3823
X3.534Y-1.4414
X4.2698Y-1.6072
X4.2698Y-1.6663
X4.049Y-1.8384
X4.1081Y-1.8384
X4.2656Y-1.7984
X4.2656Y-1.8575
X4.072Y-1.6163
X4.072Y-1.6754
X3.5907Y-2.6182
X3.6498Y-2.6182
X1.9393Y-1.0254
X1.9984Y-1.0254
T3
X1.1931Y-1.3184
X1.2431Y-1.2684
X1.2931Y-1.3184
X1.2716Y-1.042
X1.3216Y-0.992
X1.3716Y-1.042
T4
X2.6762Y-1.3752
X2.6762Y-1.4752
X2.6762Y-1.5752
X2.6762Y-1.6752
X2.6762Y-1.7752
X2.6762Y-1.8752
X2.6762Y-1.9752
X2.6762Y-2.0752
X2.9762Y-1.3752
X2.9762Y-1.4752
X2.9762Y-1.5752
X2.9762Y-1.6752
X2.9762Y-1.7752
X2.9762Y-1.8752
X2.9762Y-1.9752
X2.9762Y-2.0752
X1.8262Y-1.3752
X1.8262Y-1.4752
X1.8262Y-1.5752
X1.8262Y-1.6752
X1.8262Y-1.7752
X1.8262Y-1.8752
X1.8262Y-1.9752
X1.8262Y-2.0752
X1.8262Y-2.1752
X1.8262Y-2.2752
X1.8262Y-2.3752
X1.8262Y-2.4752
X2.4262Y-1.3752
X2.4262Y-1.4752
X2.4262Y-1.5752
X2.4262Y-1.6752
X2.4262Y-1.7752
X2.4262Y-1.8752
X2.4262Y-1.9752
X2.4262Y-2.0752
X2.4262Y-2.1752
X2.4262Y-2.2752
X2.4262Y-2.3752
X2.4262Y-2.4752
X1.7034Y-2.7227
X1.8412Y-2.7227
X2.9782Y-1.0762
X3.116Y-1.0762
X4.0474Y-3.1351
X4.0474Y-3.2351
X4.0474Y-3.3351
X4.0474Y-3.4351
X4.3474Y-3.1351
X4.3474Y-3.2351
X4.3474Y-3.3351
X4.3474Y-3.4351
X2.6772Y-2.207
X2.6772Y-2.507
X2.7772Y-2.207
X2.7772Y-2.507
X2.8772Y-2.207
X2.8772Y-2.507
X2.9772Y-2.207
X2.9772Y-2.507
X3.0772Y-2.207
X3.0772Y-2.507
X3.1772Y-2.207
X3.1772Y-2.507
X3.2772Y-2.207
X3.2772Y-2.507
X3.3772Y-2.207
X3.3772Y-2.507
X3.3222Y-1.096
X3.46Y-1.096
X3.7706Y-2.8972
X3.7706Y-3.035
X2.6255Y-1.0762
X2.7633Y-1.0762
X3.8364Y-2.624
X3.9742Y-2.624
X3.604Y-1.9431
X3.604Y-2.0431
X3.604Y-2.1431
X3.604Y-2.2431
X3.904Y-1.9431
X3.904Y-2.0431
X3.904Y-2.1431
X3.904Y-2.2431
X4.2148Y-2.3946
X4.2148Y-2.5324
X2.2881Y-1.0762
X2.4259Y-1.0762
X0.9126Y-1.6022
X0.9126Y-1.7022
X0.9126Y-1.8022
X0.9126Y-1.9022
X0.9126Y-2.0022
X0.9126Y-2.1022
X0.9126Y-2.2022
X0.9126Y-2.3022
X0.9126Y-2.4022
X0.9126Y-2.5022
X0.9126Y-2.6022
X0.9126Y-2.7022
X0.9126Y-2.8022
X0.9126Y-2.9022
X0.9126Y-3.0022
X0.9126Y-3.1022
X0.9126Y-3.2022
X0.9126Y-3.3022
X0.9126Y-3.4022
X0.9126Y-3.5022
X1.5126Y-1.6022
X1.5126Y-1.7022
X1.5126Y-1.8022
X1.5126Y-1.9022
X1.5126Y-2.0022
X1.5126Y-2.1022
X1.5126Y-2.2022
X1.5126Y-2.3022
X1.5126Y-2.4022
X1.5126Y-2.5022
X1.5126Y-2.6022
X1.5126Y-2.7022
X1.5126Y-2.8022
X1.5126Y-2.9022
X1.5126Y-3.0022
X1.5126Y-3.1022
X1.5126Y-3.2022
X1.5126Y-3.3022
X1.5126Y-3.4022
X1.5126Y-3.5022
X1.9362Y-1.3752
X1.9362Y-1.4752
X1.9362Y-1.5752
X1.9362Y-1.6752
X1.9362Y-1.7752
X1.9362Y-1.8752
X1.9362Y-1.9752
X1.9362Y-2.0752
X1.9362Y-2.1752
X1.9362Y-2.2752
X1.9362Y-2.3752
X1.9362Y-2.4752
X2.5362Y-1.3752
X2.5362Y-1.4752
X2.5362Y-1.5752
X2.5362Y-1.6752
X2.5362Y-1.7752
X2.5362Y-1.8752
X2.5362Y-1.9752
X2.5362Y-2.0752
X2.5362Y-2.1752
X2.5362Y-2.2752
X2.5362Y-2.3752
X2.5362Y-2.4752
X1.6414Y-1.0602
X1.7792Y-1.0602
X3.0892Y-1.4768
X3.0892Y-1.5768
X3.0892Y-1.6768
X3.0892Y-1.7768
X3.0892Y-1.8768
X3.0892Y-1.9768
X3.0892Y-2.0768
X3.3892Y-1.4768
X3.3892Y-1.5768
X3.3892Y-1.6768
X3.3892Y-1.7768
X3.3892Y-1.8768
X3.3892Y-1.9768
X3.3892Y-2.0768
X2.1164Y-2.6502
X2.1164Y-2.788
X4.1459Y-2.8351
X4.2837Y-2.8351
X3.7866Y-3.2581
X3.7866Y-3.3959
X4.2586Y-2.0254
X4.2586Y-2.1632
T5
X1.7336Y-3.3982
X1.8336Y-3.3982
X1.9336Y-3.3982
X2.0336Y-3.3982
X2.1336Y-3.3982
X2.2336Y-3.3982
X2.6516Y-3.281
X2.6516Y-3.381
X2.6516Y-3.481
X2.6516Y-3.581
X2.6516Y-3.681
X2.6516Y-3.781
X2.6516Y-3.881
X2.6516Y-3.981
X2.6516Y-4.081
X2.6516Y-4.181
X2.6516Y-4.281
X2.6516Y-4.381
X2.6516Y-4.481
X2.6516Y-4.581
X2.6516Y-4.681
X2.7516Y-3.281
X2.7516Y-3.381
X2.7516Y-3.481
X2.7516Y-3.581
X2.7516Y-3.681
X2.7516Y-3.781
X2.7516Y-3.881
X2.7516Y-3.981
X2.7516Y-4.081
X2.7516Y-4.181
X2.7516Y-4.281
X2.7516Y-4.381
X2.7516Y-4.481
X2.7516Y-4.581
X2.7516Y-4.681
X1.117Y-3.6432
X1.217Y-3.6432
X1.317Y-3.6432
X1.417Y-3.6432
X1.517Y-3.6432
X1.617Y-3.6432
X1.717Y-3.6432
X1.817Y-3.6432
X1.7344Y-3.2538
X1.8344Y-3.2538
X1.9344Y-3.2538
X2.0344Y-3.2538
X2.1344Y-3.2538
X2.2344Y-3.2538
X3.8733Y-0.9354
X3.8733Y-1.2503
X4.0576Y-1.0464
X4.2919Y-1.2122
X4.2919Y-1.4122
X4.5462Y-1.2122
X4.5462Y-1.3122
X4.5462Y-1.4122
X4.6462Y-1.2122
X4.6462Y-1.3122
X4.6462Y-1.4122
T6
X0.911Y-1.1698
X0.911Y-1.4749
T7
X1.0606Y-1.1757
X1.0606Y-1.469
T0
M30
